<?xml version="1.0" encoding="utf-8"?>
<!-- Generator: Adobe Illustrator 14.0.0, SVG Export Plug-In . SVG Version: 6.00 Build 43363)  -->
<!DOCTYPE svg PUBLIC "-//W3C//DTD SVG 1.1//EN" "http://www.w3.org/Graphics/SVG/1.1/DTD/svg11.dtd">
<svg version="1.1" id="Layer_1" xmlns="http://www.w3.org/2000/svg" xmlns:xlink="http://www.w3.org/1999/xlink" x="0px" y="0px"
	 width="252px" height="144px" viewBox="0 0 252 144" enable-background="new 0 0 252 144" xml:space="preserve">
<g>
	<defs>
		<rect id="SVGID_1_" x="-9" y="-9" width="270" height="162"/>
	</defs>
	<clipPath id="SVGID_2_">
		<use xlink:href="#SVGID_1_"  overflow="visible"/>
	</clipPath>
	<g clip-path="url(#SVGID_2_)">
		<defs>
			<rect id="SVGID_3_" x="-9" y="-9" width="270" height="162"/>
		</defs>
		<clipPath id="SVGID_4_">
			<use xlink:href="#SVGID_3_"  overflow="visible"/>
		</clipPath>
		<g opacity="0.1" clip-path="url(#SVGID_4_)">
			<g>
				<defs>
					<rect id="SVGID_5_" x="-15.814" y="24.458" width="91.507" height="106.891"/>
				</defs>
				<clipPath id="SVGID_6_">
					<use xlink:href="#SVGID_5_"  overflow="visible"/>
				</clipPath>
				<path clip-path="url(#SVGID_6_)" fill="#373737" d="M36.751,70.651c0.214-1.316,0.208-3.059,0.334-4.247
					c0,0,0.419-2.117,0.826-2.478c0.406-0.36,0.958-0.606,1.248-0.931c0.289-0.325,0.544-1.377,0.919-1.705
					c0.375-0.328,1.523,0.024,2.296,0c0.774-0.023,1.805-0.407,2.343-1.089c0.656-0.832,2.297-1.957,2.297-1.957
					s-2.156-0.544-3.093-0.647c-0.937-0.102-2.062,0.024-2.718,0.23c-0.656,0.207-1.734,1.242-2.062,1.544
					c-0.328,0.303-1.523,2.531-1.793,3.326c-0.269,0.796-0.48,2.272-0.597,3.233C36.634,66.89,36.751,70.651,36.751,70.651"/>
				<path clip-path="url(#SVGID_6_)" fill="#373737" d="M35.603,58.877c0,0,1.461-0.117,2.187-0.422
					c0.726-0.304,1.849-1.412,1.99-1.787c0.14-0.375,0.197-1.727,0.197-1.727s-1.445,1.968-3.507,2.741
					C35.627,57.999,35.603,58.877,35.603,58.877"/>
				<path clip-path="url(#SVGID_6_)" fill="#373737" d="M34.221,50.255c0,0-1.195-0.281-1.687-0.75
					c-0.492-0.468-1.382-1.499-1.617-2.202c-0.234-0.703-0.14-1.289,0.211-1.57c0.352-0.281,0.656-0.281,0.656-0.281
					s-0.117,0.773,0.328,1.523c0.445,0.749,0.75,1.148,1.055,1.593C33.471,49.013,34.221,50.255,34.221,50.255"/>
				<path clip-path="url(#SVGID_6_)" fill="#373737" d="M25.95,50.114c0,0,0.962-0.067,1.664-0.562
					c0.831-0.587,1.007-0.774,1.429-1.699c0.422-0.926,0.562-1.863,0-2.214c-0.562-0.352-0.961-0.188-0.961-0.188
					s0.281,0.633-0.047,1.312c-0.328,0.68-0.773,1.406-1.101,1.851C26.606,49.061,25.95,50.114,25.95,50.114"/>
				<path clip-path="url(#SVGID_6_)" fill="#373737" d="M52.602,57.952c0,0-0.176-1.043-1.371-3.011
					c-0.641-1.057-2.073-2.577-3.163-3.667c-1.089-1.089-2.179-2.214-3.304-3.936c-1.124-1.722-1.335-3.444-1.405-4.182
					c-0.071-0.739,0.21-1.406,0.21-1.406s0.493,0.773,1.266,1.687c0.773,0.914,1.3,0.5,1.757,1.722
					c0.457,1.221,1.09,3.128,1.722,3.971c0.633,0.844,1.793,1.652,2.601,3.304c0.808,1.652,1.592,2.071,1.733,3.337
					C52.788,57.036,52.602,57.952,52.602,57.952"/>
				<path clip-path="url(#SVGID_6_)" fill="#373737" d="M48.024,43.261c0,0-0.659-1.511-1.045-1.968
					c-0.387-0.457-1.23-1.055-1.23-1.055s1.652-0.492,2.601-1.441c0.948-0.948,2.495-2.46,2.987-2.882
					c0.492-0.421,0.914-0.913,1.687-0.702c0.773,0.21,2.249,1.3,2.249,1.3s-1.195-0.035-2.144,0.035s-2.144,1.09-2.776,1.793
					c-0.633,0.702-1.265,1.546-1.476,2.319s0.029,0.953-0.141,1.599C48.56,42.927,48.024,43.261,48.024,43.261"/>
				<path clip-path="url(#SVGID_6_)" fill="#373737" d="M37.806,87.686c0,0,3.058-0.633,3.761-0.914
					c0.703-0.281,1.581-1.089,1.792-2.003c0.211-0.914,0.176-4.007,0.176-4.956s0.14-3.831,0.492-4.744
					c0.351-0.914,2.144-3.456,2.776-4.417c0.633-0.961,1.898-2.577,2.566-3.772c0.668-1.195,0.457-3.515,0.457-3.515
					s-0.172,1.995-0.545,2.812c-0.369,0.808-1.974,2.975-2.724,3.713c-0.709,0.699-1.479,1.439-2.05,2.285
					c-0.546,0.81-1.218,1.874-1.218,1.874s-0.598-0.315-1.09-1.756c-0.323-0.947-0.843-2.495-0.843-2.495s-0.071,0.528,0.07,1.652
					c0.106,0.849,0.732,2.343,0.978,3.222s0.393,0.573,0.393,1.769s0,2.039-0.071,3.409c-0.07,1.371-0.227,2.53-0.869,3.128
					c-0.642,0.598-1.204,0.984-1.204,0.984s1.265-0.281,1.546-0.422c0.281-0.141,0.703-0.387,0.703-0.387s0.106,0.879-0.246,1.476
					c-0.351,0.599-0.632,1.16-1.441,1.617C40.599,86.593,37.806,87.686,37.806,87.686"/>
				<path clip-path="url(#SVGID_6_)" fill="#373737" d="M55.964,52.528l1.5-1.945c0,0,1.124-1.406,1.288-2.226
					c0.164-0.82-0.328-2.577-0.328-3.421c0-0.843-0.328-2.6-0.328-2.6s-0.398,1.124-0.398,2.085c0,0.961,0.047,2.015-0.047,3.011
					c-0.094,0.996-0.586,2.167-0.867,2.8C56.503,50.864,55.964,52.528,55.964,52.528"/>
				<path clip-path="url(#SVGID_6_)" fill="#373737" d="M51.161,45.124c0.949,0.879,2.32,1.476,2.917,1.933
					c0.598,0.457,1.617,1.722,1.617,1.722s0.422-1.124,0-1.652c-0.422-0.527-2.167-1.3-2.753-1.898
					c-0.586-0.597-1.535-0.984-1.851-1.441c-0.317-0.456-0.809-1.452-0.809-1.452S50.212,44.245,51.161,45.124"/>
				<path clip-path="url(#SVGID_6_)" fill="#373737" d="M34.689,90.345c0,0-1.968-0.703-2.577-1.312
					c-0.61-0.608-1.453-1.358-1.453-2.155c0-0.796-0.029-2.141,0.328-2.905c0.328-0.703,0.984-1.031,2.015-1.406
					c1.031-0.375,1.265-0.328,1.64-0.655c0.375-0.328,0.422-0.609,0.797-1.173c0.375-0.562,1.499-0.983,1.827-1.593
					c0.328-0.608,0.539-2.296,0.539-2.296s-0.334,0.369-0.755,0.838c-0.422,0.468-0.533,0.615-1.377,1.083
					c-0.843,0.469-1.64,0.703-2.53,0.703c-0.891,0-4.874-0.14-5.53-0.094c-0.656,0.047-2.84-0.035-3.543-0.504
					s-1.377-2.026-1.377-2.026s-0.192,0.976,0.136,1.866c0.328,0.89,1.41,0.992,1.738,1.883c0.328,0.89,0.141,0.89,0.703,1.265
					s1.007,0.319,1.658,0.568c0.812,0.312,1.099,0.379,1.575,0.791c0.448,0.388,0.88,0.791,0.938,1.968
					c0.071,1.453,0.278,1.852-0.259,2.496c-0.538,0.645-0.96,0.925-1.522,1.441c-0.563,0.515-2.015,1.218-2.015,1.218
					s2.447-0.721,3.602-0.709c0.844,0.009,0.888,0.027,1.787,0.053C31.842,89.713,34.689,90.345,34.689,90.345"/>
				<path clip-path="url(#SVGID_6_)" fill="#373737" d="M24.134,58.877c0,0-0.562-0.82-1.16-1.488
					c-0.597-0.668-1.511-0.984-1.968-1.16c-0.457-0.175-1.336-0.867-1.336-0.867s0.164,1.313,1.078,1.758
					c0.914,0.445,1.008,0.749,1.624,1.125C22.933,58.587,24.134,58.877,24.134,58.877"/>
				<path clip-path="url(#SVGID_6_)" fill="#373737" d="M23.326,70.851c0,0,0.457-3.444-0.035-5.518
					c-0.492-2.074-1.195-4.112-2.32-5.448c-1.124-1.335-1.792-2.081-3.093-2.323c-1.3-0.242-2.425,0.074-3.092,0.355
					c-0.668,0.281-1.512,0.961-1.512,0.961s1.029,0.267,1.662,0.618c0.633,0.351,1.22,1.444,2.275,1.584
					c1.054,0.141,2.284-0.421,2.882,0.141c0.597,0.562,0.82,1.57,0.82,1.57s1.175,1.247,1.429,2.109
					C23.044,67.29,23.326,70.851,23.326,70.851"/>
				<path clip-path="url(#SVGID_6_)" fill="#373737" d="M7.826,57.475c0,0,0.633-2.3,1.406-3.424c0.773-1.125,3.76-3.55,5.272-5.553
					c1.511-2.004,1.652-2.496,1.933-3.831c0.281-1.336-0.176-3.128-0.176-3.128s-1.617,2.003-2.284,2.811
					c-0.668,0.809-0.317,2.566-1.652,3.831c-1.336,1.265-2.32,2.742-3.163,4.147C8.318,53.734,7.826,57.475,7.826,57.475"/>
				<path clip-path="url(#SVGID_6_)" fill="#373737" d="M4.663,37.04c0,0,0.865-0.736,1.699-0.783
					c1.078-0.061,1.675,0.221,2.343,0.924c0.668,0.703,1.549,2.133,2.073,3.233c0.453,0.95,0.949,2.917,0.949,2.917
					s0.317-1.019,0.984-1.792c0.668-0.774,1.652-1.09,1.652-1.09s-2.055-1.691-3.136-2.54c-1.167-0.917-2.276-2.169-3.401-2.415
					c-1.209-0.265-1.968-0.141-2.495,0.386C4.804,36.407,4.663,37.04,4.663,37.04"/>
				<path clip-path="url(#SVGID_6_)" fill="#373737" d="M3,50.29c0,0-1.611-0.843-1.857-2.214c-0.246-1.371,0.301-5.659,0.301-5.659
					s0.297,3.656,0.652,4.78C2.451,48.322,3,48.849,3,48.849V50.29z"/>
				<path clip-path="url(#SVGID_6_)" fill="#373737" d="M4.663,48.533c0,0,2.038-2.249,2.566-2.636
					c0.527-0.387,2.425-1.511,2.741-1.968c0.316-0.457,0.316-0.949,0.316-0.949s-1.476,0.351-2.249,1.054s-1.614,1.46-2.179,2.039
					C5.155,46.792,4.663,48.533,4.663,48.533"/>
				<path clip-path="url(#SVGID_6_)" fill="#373737" d="M10.368,63.915c0,0-0.281,1.172,0,2.109
					c0.281,0.937,2.156,3.866,2.671,4.627c0.516,0.762,2.203,3.222,2.671,4.875c0.469,1.651,0.891,3.854,0.844,5.775
					c-0.047,1.921-0.106,3.76,0.269,4.416s1.137,1.395,1.933,1.582c0.797,0.188,4.218,0.386,4.218,0.386s-2.718-0.386-3.468-0.667
					s-1.599-0.742-2.015-1.616c-0.407-0.856-0.328-2.039-0.328-2.039s0.562,0.469,1.546,0.844s3.14,0.375,3.14,0.375
					s-1.64-0.422-2.296-0.703c-0.656-0.281-2.009-0.949-2.203-1.453c-0.193-0.504-0.355-4.005-0.12-5.129
					c0.234-1.125,0.964-3.446,1.62-5.087c0.656-1.64,0.422-4.17,0.422-4.17s0.047,0.703-0.516,2.39
					c-0.562,1.687-1.898,3.983-1.898,3.983s-0.89-1.102-1.734-2.46c-0.843-1.359-3.725-4.944-4.1-6.069S10.368,63.915,10.368,63.915
					"/>
				<path clip-path="url(#SVGID_6_)" fill="#373737" d="M21.287,95.417c0,0,0.07-0.28,0.492-0.808
					c0.422-0.528,0.703-0.317,0.633-1.125c-0.071-0.808-0.774-1.3-0.774-1.3s-0.577,0.984-0.492,1.616
					C21.232,94.433,21.287,95.417,21.287,95.417"/>
				<path clip-path="url(#SVGID_6_)" fill="#373737" d="M22.095,97.878c0,0-0.351-1.195,0-1.898
					c0.351-0.703,1.195-0.808,1.195-0.808s0.141,0.246,0,1.054S22.095,97.878,22.095,97.878"/>
				<path clip-path="url(#SVGID_6_)" fill="#373737" d="M24.38,100.162c0,0-0.914-1.687-0.773-2.284
					c0.14-0.598,0.457-0.633,0.562-1.055c0.106-0.422,0.211-1.16,0.211-1.16s0.422,0.457,0.633,1.125
					c0.21,0.668-0.317,1.511-0.352,2.003C24.626,99.283,24.38,100.162,24.38,100.162"/>
				<path clip-path="url(#SVGID_6_)" fill="#373737" d="M26.137,101.885c0,0,0.07-1.16,0-2.249c-0.07-1.091,0-2.25,0-2.25
					l0.879,0.913c0,0-0.035,1.337-0.282,1.863C26.488,100.689,26.137,101.885,26.137,101.885"/>
				<path clip-path="url(#SVGID_6_)" fill="#373737" d="M27.262,102.411c0,0,0.035-1.405,0.422-2.003
					c0.386-0.598,0.914-1.862,0.914-1.862s0.175,0.633,1.054,0.737c0.879,0.105,1.863-0.562,1.863-0.562s-0.422,0.457,0,0.913
					c0.421,0.457,0.562,0.598,0.773,1.16c0.211,0.562,0.668,0.844,0.668,0.844s-0.738,0.176-1.336-0.317
					c-0.597-0.492-0.457-0.526-1.511-0.526c-1.055,0-1.547,0.176-1.793,0.422S27.262,102.411,27.262,102.411"/>
				<path clip-path="url(#SVGID_6_)" fill="#373737" d="M34.186,101.287c0,0-1.23-0.703-1.23-1.934c0-1.229,0.246-2.39,0.246-2.39
					s0.316,0.633,0.633,1.229C34.15,98.792,34.186,101.287,34.186,101.287"/>
				<path clip-path="url(#SVGID_6_)" fill="#373737" d="M35.17,100.162c0,0,0.211-1.265,0-2.003
					c-0.211-0.738-0.492-1.16-0.422-1.635C34.819,96.05,35,95.417,35,95.417s0.311,1.09,0.697,1.547
					c0.387,0.457,0.949,1.16,0.492,1.827C35.732,99.459,35.17,100.162,35.17,100.162"/>
				<path clip-path="url(#SVGID_6_)" fill="#373737" d="M37.806,97.878c0,0-0.914-0.388-1.09-1.125
					c-0.175-0.738-0.14-1.581-0.14-1.581s0.07-0.177,0.843,0.246c0.774,0.422,0.738,0.668,0.703,1.265
					C38.087,97.28,37.806,97.878,37.806,97.878"/>
				<path clip-path="url(#SVGID_6_)" fill="#373737" d="M39.493,95.172c0,0-0.99,0.176-1.356-0.527s-0.19-1.406-0.331-1.934
					c-0.141-0.526,0-0.772,0-0.772s0.324,0.035,0.812,0.702c0.488,0.668,0.067,1.02,0.278,1.477
					C39.105,94.574,39.493,95.172,39.493,95.172"/>
				<path clip-path="url(#SVGID_6_)" fill="#373737" d="M30.378,42.417c0,0-3.306-1.533-3.936-3.206
					c-0.631-1.672-0.27-4.509-0.492-6.182c-0.108-0.806-1.488-4.078-3.328-6.014c-0.726-0.765-3.444-2.558-3.444-2.558
					s5.131,0.118,6.854,1.687c1.545,1.409,3.082,4.404,3.092,6.027c0.014,2.073-0.14,4.095-0.152,5.548
					C28.962,38.985,30.378,42.417,30.378,42.417"/>
				<path clip-path="url(#SVGID_6_)" fill="#373737" d="M31.175,40.914c0,0-1.866-3.096-0.556-4.928
					c1.821-2.549,2.626-7.723,4.149-9.223c1.494-1.471,6.509-1.931,6.509-1.931s-1.936,1.992-2.967,3.89
					c-1.03,1.898-2.058,6.131-3.781,8.388C33.257,38.777,31.175,40.914,31.175,40.914"/>
				<path clip-path="url(#SVGID_6_)" fill="#373737" d="M-12.641,67.424c0,0-0.641-5.524-2.062-8.547
					c-1.95-4.149-1.288-7.547,1.617-10.344c2.905-2.798,5.915-2.826,8.154-4.183c2.238-1.356,5.145-4.864,5.145-4.864
					s-1.476,3.866-1.476,6.411c0,2.544,1.087,4.217,1.087,4.217s-4.967,2.601-8.435,5.835
					C-12.088,59.191-12.641,67.424-12.641,67.424"/>
				<path clip-path="url(#SVGID_6_)" fill="#373737" d="M-9.829,65.649c0,0,0.961-6.326,4.124-8.174
					c4.624-2.7,7.552-5.509,7.552-5.509s0.505,5.644-2.14,6.841C-7.791,62.201-9.829,65.649-9.829,65.649"/>
				<path clip-path="url(#SVGID_6_)" fill="#373737" d="M-6.689,33.209c0,0,5.814-5.026,9.048-5.518
					c3.758-0.572,10.025-1.125,12.428,1.765c1.641,1.973,1.708,3.699,3.079,6.202c1.18,2.152,3.702,4.404,3.702,4.404
					s-3.704,0.393-5.764-0.717c-2.059-1.11-3.969-3.602-6.537-5.046c-2.179-1.226-3.163-1.828-6.607-2.25
					C-0.157,31.704-6.689,33.209-6.689,33.209"/>
				<path clip-path="url(#SVGID_6_)" fill="#373737" d="M24.591,39.211c0,0-3.027-1.519-4.011-3.226
					c-0.984-1.707-1.66-4.305-2.184-5.201c-2.545-4.358-7.793-4.968-7.793-4.968s9.552-3.789,13.531,6.444
					C24.83,34.049,24.591,39.211,24.591,39.211"/>
				<path clip-path="url(#SVGID_6_)" fill="#373737" d="M4.663,33.689c0,0-3.714,1.195-5.541,2.531
					c-1.828,1.335-1.64,3.91-3.984,5.529c-2.072,1.433-4.709,0.984-6.607,2.39c-1.898,1.406-2.46,3.304-2.46,3.304
					s1.069-3.796,1.335-5.905c0.267-2.108,1.102-4.674,3.866-6.179C-5.93,33.836,4.663,33.689,4.663,33.689"/>
				<path clip-path="url(#SVGID_6_)" fill="#373737" d="M72.519,67.986c0,0,0.641-5.524,2.062-8.547
					c1.95-4.149,1.288-7.547-1.617-10.344c-2.905-2.798-5.915-2.826-8.154-4.183c-2.238-1.356-5.145-4.864-5.145-4.864
					s1.476,3.866,1.476,6.411c0,2.544-1.087,4.217-1.087,4.217s4.967,2.601,8.435,5.835C71.967,59.753,72.519,67.986,72.519,67.986"
					/>
				<path clip-path="url(#SVGID_6_)" fill="#373737" d="M69.708,66.211c0,0-0.961-6.326-4.124-8.174
					c-4.624-2.7-7.552-5.509-7.552-5.509s-0.505,5.644,2.14,6.841C67.669,62.763,69.708,66.211,69.708,66.211"/>
				<path clip-path="url(#SVGID_6_)" fill="#373737" d="M66.567,33.771c0,0-5.741-6.052-8.975-6.544
					c-3.758-0.572-10.098-0.099-12.501,2.791c-1.641,1.973-1.708,3.699-3.079,6.202c-1.18,2.152-3.702,4.404-3.702,4.404
					s3.704,0.393,5.764-0.717c2.059-1.11,3.969-3.602,6.537-5.046c2.179-1.226,3.163-1.828,6.607-2.25
					C60.036,32.267,66.567,33.771,66.567,33.771"/>
				<path clip-path="url(#SVGID_6_)" fill="#373737" d="M55.215,34.252c0,0,3.714,1.195,5.541,2.531
					c1.828,1.335,1.64,3.91,3.984,5.529c2.072,1.433,4.709,0.984,6.607,2.39c1.898,1.406,2.46,3.304,2.46,3.304
					s-1.069-3.796-1.335-5.905c-0.267-2.109-1.102-4.674-3.866-6.179C65.809,34.399,55.215,34.252,55.215,34.252"/>
				<path clip-path="url(#SVGID_6_)" fill="#373737" d="M34.529,39.345c0,0,4.601-1.12,5.912-3.008
					c1.758-2.531,2.432-5.572,3.58-6.908c1.464-1.702,4.003-2.722,4.003-2.722s-4.558-1.921-6.259-0.656
					c-1.7,1.265-3.102,6.731-3.936,8.576C37.145,36.139,34.529,39.345,34.529,39.345"/>
				<path clip-path="url(#SVGID_6_)" fill="#373737" d="M30.788,32.874c0,0-0.574-2.722-1.101-3.776
					c-0.527-1.055-2.109-2.847-2.109-2.847s2.021,0.834,3.04,0.764c1.019-0.069,3.04-0.764,3.04-0.764s-1.124,1.37-1.687,2.565
					C31.409,30.01,30.788,32.874,30.788,32.874"/>
				<path clip-path="url(#SVGID_6_)" fill="#373737" d="M13.021,74.519c0,0,0.661,2.74-4.703,6.536
					C2.955,84.85-2.527,89.537-4.003,95.066c-1.476,5.528,5.609,17.068,5.609,17.068s-2.025-9.863,0.717-14.345
					c2.986-4.882,8.86-9.327,10.698-12.518C15.207,81.478,13.021,74.519,13.021,74.519"/>
				<path clip-path="url(#SVGID_6_)" fill="#373737" d="M14.914,87.674c0,0,1.792,6.765,1.423,10.116
					c-0.37,3.352-3.961,6.02-5.226,10.447c-1.266,4.429,1.741,13.814,1.741,13.814s-9.068-7.844-8.47-13.726
					c0.597-5.88,5.623-8.525,7.627-12.347C14.012,92.158,14.914,87.674,14.914,87.674"/>
				<path clip-path="url(#SVGID_6_)" fill="#373737" d="M20.865,99.125c0,0-4.427,3.578-4.526,7.796
					c-0.1,4.218,1.514,7.675,1.667,12.103c0.154,4.429-0.656,8.295-0.656,8.295s5.744-3.515,6.826-7.311s-1.275-7.686-2.757-12.746
					C19.937,102.201,20.865,99.125,20.865,99.125"/>
				<path clip-path="url(#SVGID_6_)" fill="#373737" d="M-7.58,93.109c0,0-0.69-11.703,3.235-15.288
					c3.926-3.585,10.041-9.394,10.462-13.659c0.422-4.264-1.771-7.253-1.771-7.253s-3.078,4.77-7.928,7.253
					S-14.89,70.787-14.89,76.819C-14.89,82.854-7.58,93.109-7.58,93.109"/>
				<path clip-path="url(#SVGID_6_)" fill="#373737" d="M8.916,67.43c0,0-1.533,4.699-3.43,6.175
					c-1.898,1.476-6.325,4.987-7.536,7.602c-1.482,3.202-0.958,5.854-0.958,5.854s2.79-4.622,5.367-5.828
					c1.671-0.782,6.403-2.526,7.026-5.431C10.212,71.934,9.019,67.241,8.916,67.43"/>
				<path clip-path="url(#SVGID_6_)" fill="#373737" d="M27.754,104.075c0,0-3.5,1.575-2.692,5.166
					c0.465,2.064,1.602,2.715,2.692,4.019c1.501,1.796,0.147,5.765,0.147,5.765s3.548-4.396,3.18-6.691
					c-0.361-2.253-2.155-3.712-2.661-4.79C27.707,106.022,27.754,104.075,27.754,104.075"/>
				<path clip-path="url(#SVGID_6_)" fill="#373737" d="M32.44,131.349c0,0-6.115-2.44-6.334-5.812
					c-0.189-2.918,4.296-4.405,5.643-6.935c1.347-2.531,1.822-5.848,1.822-5.848s2.18,3.224,1.977,6.223
					c-0.203,2.999-2.358,4.404-3.014,6.278C31.878,127.13,32.44,131.349,32.44,131.349"/>
				<path clip-path="url(#SVGID_6_)" fill="#373737" d="M33.571,103.044c0,0-1.4,3.937,0,6.654c1.4,2.718,5.414,5.811,5.047,8.529
					c-0.367,2.718-3.019,8.341-3.019,8.341s4.269-2.529,6.12-4.517c1.031-1.106,2.781-5.381,0.813-8.38
					c-1.968-2.999-3.2-3.036-5.177-5.098C35.377,106.512,33.571,103.044,33.571,103.044"/>
				<path clip-path="url(#SVGID_6_)" fill="#373737" d="M47.001,74.097c0,0-0.661,2.741,4.703,6.537
					c5.363,3.795,10.845,8.481,12.321,14.011c1.476,5.529-5.765,19.028-5.765,19.028s1.861-10.646-0.88-15.128
					c-2.986-4.881-7.092-7.669-8.929-10.859C46.266,83.89,47.001,74.097,47.001,74.097"/>
				<path clip-path="url(#SVGID_6_)" fill="#373737" d="M45.812,87.252c0,0-3.052,6.782-2.683,10.134
					c0.369,3.351,5.221,6.002,6.486,10.43c1.266,4.429-1.616,14.64-1.616,14.64s8.943-8.669,8.345-14.55
					c-0.597-5.881-5.623-8.526-7.627-12.348C46.713,91.736,45.812,87.252,45.812,87.252"/>
				<path clip-path="url(#SVGID_6_)" fill="#373737" d="M68.305,92.688c0,0,0.69-11.703-3.235-15.288
					c-3.926-3.585-10.041-9.394-10.462-13.659c-0.422-4.264,1.771-7.253,1.771-7.253s2.595,6.678,7.445,9.161
					c4.849,2.483,8.917,6.127,8.917,12.161C72.741,83.843,68.305,92.688,68.305,92.688"/>
				<path clip-path="url(#SVGID_6_)" fill="#373737" d="M51.528,67.008c0,0,1.533,4.699,3.43,6.175
					c1.898,1.477,6.325,4.987,7.536,7.603c1.482,3.201,0.958,5.853,0.958,5.853s-2.79-4.622-5.367-5.828
					c-1.671-0.782-6.403-2.525-7.026-5.431C50.232,71.512,51.425,66.819,51.528,67.008"/>
				<path clip-path="url(#SVGID_6_)" fill="#373737" d="M40.68,99.635c0,0-1.669,5.984,1.297,8.657
					c3.374,3.04,4.545,6.514,4.545,6.514s1.577-3.632-0.023-6.795c-0.726-1.434-2.397-2.336-3.562-3.936
					C41.533,102.146,40.68,99.635,40.68,99.635"/>
			</g>
		</g>
	</g>
	<g clip-path="url(#SVGID_2_)">
		<path fill="#373737" d="M33.671,29.438v5.079h-2.806V21.281h3.856c1.799,0,3.129,0.328,3.993,0.982
			c0.863,0.655,1.294,1.649,1.294,2.983c0,0.778-0.214,1.471-0.643,2.078s-1.035,1.082-1.82,1.426
			c1.992,2.976,3.29,4.898,3.893,5.767h-3.114l-3.16-5.079H33.671z M33.671,27.157h0.906c0.887,0,1.542-0.148,1.964-0.444
			c0.422-0.295,0.634-0.76,0.634-1.394c0-0.628-0.216-1.074-0.647-1.34s-1.1-0.398-2.005-0.398h-0.851V27.157z"/>
		<path fill="#373737" d="M53.879,21.281v8.565c0,0.978-0.219,1.834-0.656,2.571c-0.438,0.737-1.07,1.301-1.897,1.693
			c-0.827,0.392-1.805,0.588-2.933,0.588c-1.702,0-3.024-0.436-3.965-1.308c-0.942-0.872-1.413-2.066-1.413-3.581v-8.528h2.797
			v8.103c0,1.02,0.206,1.769,0.616,2.245c0.411,0.477,1.089,0.715,2.037,0.715c0.917,0,1.583-0.24,1.997-0.72
			c0.413-0.48,0.62-1.233,0.62-2.259v-8.085H53.879z"/>
		<path fill="#373737" d="M62.226,34.517h-2.807v-10.9h-3.594v-2.336h9.995v2.336h-3.594V34.517z"/>
		<path fill="#373737" d="M78.504,34.517h-3.187L71.85,28.94l-1.186,0.851v4.726h-2.806V21.281h2.806v6.057l1.105-1.557l3.585-4.5
			h3.114l-4.617,5.858L78.504,34.517z"/>
		<path fill="#373737" d="M92.184,27.881c0,2.191-0.543,3.875-1.629,5.052c-1.086,1.177-2.644,1.766-4.672,1.766
			c-2.028,0-3.585-0.588-4.671-1.766c-1.086-1.177-1.63-2.867-1.63-5.07s0.545-3.885,1.634-5.047
			c1.089-1.162,2.651-1.743,4.685-1.743c2.034,0,3.59,0.585,4.667,1.756C91.645,24,92.184,25.684,92.184,27.881z M82.523,27.881
			c0,1.479,0.281,2.592,0.842,3.341c0.561,0.749,1.4,1.123,2.517,1.123c2.239,0,3.359-1.488,3.359-4.463
			c0-2.981-1.113-4.472-3.341-4.472c-1.117,0-1.958,0.375-2.526,1.127S82.523,26.402,82.523,27.881z"/>
		<path fill="#373737" d="M107.819,34.517h-3.196l-1.792-6.953c-0.066-0.247-0.18-0.759-0.339-1.535
			c-0.16-0.775-0.252-1.296-0.276-1.562c-0.036,0.326-0.126,0.85-0.271,1.571c-0.145,0.721-0.256,1.236-0.335,1.543l-1.783,6.935
			h-3.187l-3.377-13.236h2.761l1.693,7.225c0.296,1.333,0.51,2.489,0.643,3.467c0.036-0.344,0.119-0.876,0.249-1.598
			c0.129-0.721,0.252-1.281,0.367-1.679l1.928-7.415h2.653l1.928,7.415c0.084,0.332,0.19,0.839,0.317,1.521
			c0.126,0.682,0.223,1.268,0.29,1.756c0.061-0.471,0.157-1.058,0.29-1.761s0.254-1.272,0.362-1.707l1.684-7.225h2.761
			L107.819,34.517z"/>
		<path fill="#373737" d="M120.666,30.841c0,1.195-0.43,2.137-1.29,2.825c-0.86,0.688-2.057,1.032-3.59,1.032
			c-1.412,0-2.662-0.266-3.748-0.797v-2.607c0.893,0.398,1.649,0.679,2.268,0.842c0.618,0.163,1.184,0.244,1.697,0.244
			c0.616,0,1.088-0.118,1.417-0.353c0.329-0.235,0.493-0.585,0.493-1.05c0-0.259-0.072-0.49-0.217-0.692
			c-0.145-0.202-0.357-0.397-0.638-0.584s-0.853-0.486-1.715-0.896c-0.809-0.38-1.416-0.745-1.82-1.095
			c-0.405-0.35-0.728-0.757-0.969-1.222c-0.242-0.465-0.362-1.008-0.362-1.63c0-1.171,0.397-2.091,1.19-2.761
			c0.794-0.67,1.891-1.005,3.291-1.005c0.688,0,1.344,0.082,1.969,0.245c0.625,0.163,1.278,0.392,1.96,0.688l-0.905,2.182
			c-0.706-0.29-1.29-0.492-1.752-0.606c-0.461-0.115-0.916-0.172-1.362-0.172c-0.531,0-0.939,0.124-1.222,0.371
			c-0.284,0.248-0.426,0.57-0.426,0.969c0,0.248,0.057,0.463,0.172,0.647s0.297,0.362,0.548,0.534
			c0.25,0.172,0.843,0.481,1.779,0.928c1.237,0.592,2.085,1.185,2.544,1.779C120.436,29.25,120.666,29.979,120.666,30.841z"/>
		<path fill="#373737" d="M133.711,34.517h-3.186l-3.469-5.577l-1.186,0.851v4.726h-2.806V21.281h2.806v6.057l1.105-1.557l3.584-4.5
			h3.115l-4.617,5.858L133.711,34.517z"/>
		<path fill="#373737" d="M135.378,34.517V21.281h2.807v13.236H135.378z"/>
	</g>
	<g clip-path="url(#SVGID_2_)">
		<path fill="#373737" d="M141.691,34.517V21.281h0.924v12.367h6.31v0.869H141.691z"/>
		<path fill="#373737" d="M157.58,29.846h-5.378l-1.847,4.671h-1.023l5.323-13.291h0.589l5.215,13.291h-1.041L157.58,29.846z
			 M152.537,29.013h4.734l-1.801-4.771c-0.151-0.375-0.332-0.894-0.544-1.558c-0.163,0.58-0.341,1.104-0.534,1.576L152.537,29.013z"
			/>
		<path fill="#373737" d="M172.88,34.517h-0.76l-2.906-10.212c-0.241-0.839-0.423-1.527-0.543-2.064
			c-0.097,0.525-0.234,1.128-0.412,1.811c-0.179,0.682-1.151,4.171-2.92,10.466h-0.778l-3.64-13.236h0.969l2.317,8.528
			c0.091,0.344,0.175,0.663,0.254,0.956c0.078,0.292,0.149,0.567,0.213,0.824c0.062,0.256,0.12,0.504,0.172,0.742
			c0.051,0.239,0.098,0.479,0.14,0.72c0.146-0.821,0.453-2.067,0.924-3.739l2.264-8.031h1.022l2.653,9.217
			c0.308,1.062,0.527,1.919,0.66,2.571c0.079-0.435,0.18-0.896,0.304-1.385c0.123-0.489,1.055-3.957,2.793-10.403h0.933
			L172.88,34.517z"/>
		<path fill="#373737" d="M184.614,34.517h-0.924V21.281h7.252v0.851h-6.328v5.613h5.975v0.86h-5.975V34.517z"/>
		<path fill="#373737" d="M192.997,34.517V21.281h0.924v13.236H192.997z"/>
		<path fill="#373737" d="M198.593,28.75v5.767h-0.924V21.281h3.15c1.642,0,2.855,0.304,3.64,0.91s1.177,1.52,1.177,2.739
			c0,0.887-0.233,1.636-0.701,2.245c-0.468,0.61-1.179,1.047-2.132,1.312l3.594,6.03h-1.104l-3.413-5.767H198.593z M198.593,27.953
			h2.525c1.117,0,1.982-0.249,2.599-0.747c0.615-0.498,0.923-1.233,0.923-2.205c0-1.008-0.302-1.741-0.905-2.2
			c-0.604-0.458-1.587-0.688-2.951-0.688h-2.19V27.953z"/>
		<path fill="#373737" d="M214.508,34.517l-4.934-12.222h-0.073c0.049,0.749,0.073,1.515,0.073,2.3v9.922h-0.888V21.281h1.431
			l4.689,11.643h0.055l4.689-11.643h1.395v13.236h-0.933V24.486c0-0.7,0.036-1.424,0.108-2.173h-0.072l-4.952,12.204H214.508z"/>
	</g>
	<g clip-path="url(#SVGID_2_)">
		<path fill="#373737" d="M77.758,44.092h-2.772l-0.486,1.13c-0.12,0.278-0.18,0.486-0.18,0.623c0,0.109,0.052,0.206,0.156,0.288
			c0.104,0.083,0.329,0.136,0.673,0.161v0.195h-2.255v-0.195c0.299-0.053,0.493-0.122,0.581-0.206
			c0.18-0.169,0.378-0.512,0.597-1.03l2.519-5.894h0.185l2.493,5.958c0.201,0.479,0.383,0.79,0.546,0.932s0.392,0.223,0.684,0.24
			v0.195h-2.826v-0.195c0.285-0.014,0.478-0.062,0.579-0.143c0.1-0.081,0.15-0.18,0.15-0.296c0-0.155-0.07-0.399-0.211-0.734
			L77.758,44.092z M77.611,43.701l-1.215-2.894l-1.247,2.894H77.611z"/>
		<path fill="#373737" d="M82.364,40.062v1.59h1.13v0.37h-1.13v3.137c0,0.313,0.045,0.525,0.135,0.634
			c0.09,0.109,0.205,0.164,0.346,0.164c0.116,0,0.229-0.036,0.338-0.108c0.109-0.072,0.193-0.179,0.253-0.319h0.206
			c-0.124,0.345-0.298,0.604-0.523,0.779c-0.226,0.174-0.458,0.261-0.697,0.261c-0.162,0-0.32-0.045-0.475-0.135
			c-0.155-0.089-0.27-0.218-0.343-0.385c-0.074-0.167-0.111-0.425-0.111-0.774v-3.253h-0.766v-0.174
			c0.194-0.078,0.392-0.208,0.594-0.394c0.203-0.185,0.383-0.404,0.542-0.657c0.081-0.134,0.193-0.378,0.338-0.734H82.364z"/>
		<path fill="#373737" d="M85.369,40.062v1.59h1.13v0.37h-1.13v3.137c0,0.313,0.045,0.525,0.135,0.634
			c0.09,0.109,0.205,0.164,0.346,0.164c0.116,0,0.229-0.036,0.338-0.108c0.109-0.072,0.193-0.179,0.253-0.319h0.206
			c-0.124,0.345-0.298,0.604-0.523,0.779c-0.226,0.174-0.458,0.261-0.697,0.261c-0.162,0-0.32-0.045-0.475-0.135
			c-0.155-0.089-0.27-0.218-0.343-0.385c-0.074-0.167-0.111-0.425-0.111-0.774v-3.253h-0.766v-0.174
			c0.194-0.078,0.392-0.208,0.594-0.394c0.203-0.185,0.383-0.404,0.542-0.657c0.081-0.134,0.193-0.378,0.338-0.734H85.369z"/>
		<path fill="#373737" d="M89.335,41.51c0.732,0,1.32,0.278,1.764,0.834c0.377,0.475,0.565,1.021,0.565,1.637
			c0,0.433-0.104,0.872-0.312,1.315c-0.208,0.443-0.494,0.778-0.858,1.003c-0.365,0.225-0.771,0.338-1.217,0.338
			c-0.729,0-1.308-0.291-1.738-0.872c-0.362-0.489-0.544-1.039-0.544-1.647c0-0.444,0.11-0.885,0.33-1.323
			c0.22-0.438,0.51-0.762,0.869-0.972C88.553,41.614,88.934,41.51,89.335,41.51z M89.171,41.853c-0.187,0-0.374,0.055-0.562,0.166
			c-0.188,0.111-0.341,0.306-0.457,0.584c-0.116,0.278-0.174,0.635-0.174,1.072c0,0.704,0.14,1.312,0.42,1.822
			c0.28,0.51,0.648,0.766,1.106,0.766c0.341,0,0.623-0.141,0.845-0.422c0.222-0.282,0.333-0.766,0.333-1.453
			c0-0.859-0.185-1.535-0.555-2.028C89.877,42.022,89.559,41.853,89.171,41.853z"/>
		<path fill="#373737" d="M93.792,41.51v1.088c0.405-0.726,0.82-1.088,1.246-1.088c0.194,0,0.354,0.059,0.481,0.177
			c0.126,0.118,0.19,0.254,0.19,0.409c0,0.137-0.046,0.253-0.137,0.349c-0.092,0.095-0.201,0.143-0.328,0.143
			c-0.123,0-0.261-0.061-0.415-0.182s-0.267-0.182-0.34-0.182c-0.063,0-0.132,0.035-0.206,0.105
			c-0.159,0.145-0.322,0.382-0.491,0.713v2.318c0,0.268,0.033,0.47,0.1,0.607c0.046,0.095,0.127,0.174,0.243,0.238
			s0.283,0.095,0.501,0.095v0.19H92.16V46.3c0.246,0,0.429-0.039,0.549-0.116c0.088-0.057,0.149-0.146,0.185-0.27
			c0.018-0.06,0.026-0.23,0.026-0.512v-1.875c0-0.563-0.011-0.898-0.034-1.006s-0.065-0.186-0.127-0.235s-0.138-0.074-0.229-0.074
			c-0.109,0-0.232,0.026-0.37,0.079l-0.053-0.19l1.463-0.591H93.792z"/>
		<path fill="#373737" d="M97.388,42.534c0.567-0.683,1.107-1.024,1.621-1.024c0.264,0,0.491,0.066,0.682,0.198
			c0.19,0.132,0.341,0.35,0.454,0.652c0.077,0.211,0.116,0.535,0.116,0.972v2.065c0,0.306,0.024,0.514,0.074,0.623
			c0.039,0.088,0.101,0.157,0.188,0.206S100.768,46.3,101,46.3v0.19h-2.393V46.3h0.101c0.225,0,0.383-0.035,0.473-0.103
			c0.09-0.069,0.152-0.17,0.188-0.304c0.014-0.053,0.021-0.218,0.021-0.497v-1.98c0-0.44-0.057-0.759-0.171-0.958
			c-0.115-0.199-0.307-0.298-0.579-0.298c-0.419,0-0.836,0.229-1.251,0.687v2.551c0,0.328,0.02,0.53,0.058,0.607
			c0.049,0.102,0.117,0.177,0.203,0.225c0.086,0.047,0.262,0.071,0.526,0.071v0.19h-2.393V46.3h0.105
			c0.247,0,0.413-0.062,0.499-0.188c0.086-0.125,0.129-0.364,0.129-0.716v-1.795c0-0.581-0.013-0.935-0.04-1.062
			c-0.026-0.127-0.067-0.213-0.121-0.259c-0.055-0.046-0.128-0.069-0.219-0.069c-0.099,0-0.217,0.026-0.354,0.079l-0.079-0.19
			l1.458-0.591h0.227V42.534z"/>
		<path fill="#373737" d="M102.199,43.474c-0.003,0.718,0.17,1.282,0.523,1.69c0.352,0.409,0.766,0.613,1.241,0.613
			c0.317,0,0.592-0.087,0.827-0.262c0.234-0.174,0.43-0.473,0.589-0.895l0.164,0.106c-0.074,0.482-0.289,0.921-0.644,1.317
			c-0.356,0.396-0.801,0.594-1.336,0.594c-0.581,0-1.078-0.226-1.492-0.679c-0.414-0.452-0.621-1.061-0.621-1.825
			c0-0.827,0.212-1.473,0.636-1.936s0.957-0.694,1.598-0.694c0.542,0,0.988,0.179,1.336,0.536c0.349,0.357,0.523,0.835,0.523,1.434
			H102.199z M102.199,43.168h2.239c-0.018-0.31-0.055-0.528-0.111-0.655c-0.088-0.197-0.219-0.352-0.394-0.465
			s-0.356-0.169-0.547-0.169c-0.292,0-0.554,0.113-0.784,0.34C102.373,42.447,102.238,42.763,102.199,43.168z"/>
		<path fill="#373737" d="M105.912,41.652h2.255v0.195h-0.111c-0.158,0-0.277,0.034-0.356,0.103
			c-0.079,0.068-0.119,0.154-0.119,0.256c0,0.138,0.058,0.328,0.174,0.57l1.177,2.44l1.083-2.672c0.06-0.145,0.09-0.287,0.09-0.428
			c0-0.063-0.013-0.111-0.037-0.143c-0.028-0.039-0.072-0.069-0.132-0.092c-0.06-0.023-0.166-0.034-0.317-0.034v-0.195h1.574v0.195
			c-0.13,0.014-0.231,0.042-0.301,0.084c-0.07,0.042-0.148,0.122-0.232,0.238c-0.032,0.049-0.091,0.185-0.18,0.406l-1.97,4.827
			c-0.19,0.468-0.439,0.822-0.747,1.062s-0.605,0.359-0.89,0.359c-0.208,0-0.378-0.06-0.512-0.18s-0.201-0.257-0.201-0.412
			c0-0.148,0.048-0.267,0.146-0.356c0.097-0.09,0.229-0.135,0.398-0.135c0.116,0,0.275,0.039,0.476,0.116
			c0.141,0.053,0.229,0.08,0.264,0.08c0.106,0,0.221-0.055,0.346-0.164c0.125-0.109,0.251-0.32,0.377-0.634l0.343-0.839
			l-1.737-3.649c-0.053-0.109-0.137-0.245-0.253-0.407c-0.088-0.123-0.161-0.206-0.217-0.248c-0.081-0.057-0.211-0.106-0.391-0.148
			V41.652z"/>
		<path fill="#373737" d="M114.721,41.51v1.647h-0.174c-0.134-0.518-0.305-0.87-0.515-1.056s-0.477-0.28-0.8-0.28
			c-0.247,0-0.445,0.065-0.597,0.195s-0.227,0.274-0.227,0.433c0,0.197,0.056,0.366,0.169,0.507
			c0.109,0.145,0.331,0.298,0.666,0.459l0.771,0.375c0.715,0.349,1.072,0.808,1.072,1.378c0,0.44-0.166,0.795-0.499,1.064
			c-0.333,0.27-0.705,0.404-1.117,0.404c-0.296,0-0.634-0.053-1.014-0.159c-0.116-0.035-0.211-0.053-0.285-0.053
			c-0.081,0-0.145,0.046-0.19,0.137h-0.174v-1.727h0.174c0.099,0.493,0.287,0.864,0.565,1.114s0.59,0.375,0.935,0.375
			c0.243,0,0.441-0.071,0.594-0.214c0.153-0.143,0.23-0.314,0.23-0.515c0-0.243-0.085-0.447-0.256-0.613
			c-0.171-0.165-0.511-0.375-1.022-0.628c-0.51-0.253-0.845-0.482-1.003-0.687c-0.158-0.201-0.237-0.454-0.237-0.76
			c0-0.398,0.136-0.73,0.409-0.998s0.625-0.401,1.059-0.401c0.19,0,0.421,0.041,0.692,0.121c0.18,0.053,0.299,0.08,0.359,0.08
			c0.056,0,0.1-0.012,0.132-0.037c0.032-0.024,0.069-0.079,0.111-0.164H114.721z"/>
		<path fill="#373737" d="M123.688,41.879h2.218v0.195c-0.306,0.025-0.533,0.092-0.679,0.203c-0.146,0.111-0.374,0.446-0.684,1.006
			c-0.31,0.56-0.659,1.083-1.046,1.568c0.313,0.366,0.593,0.623,0.84,0.769c0.246,0.146,0.495,0.219,0.745,0.219
			c0.243,0,0.449-0.066,0.618-0.198s0.289-0.327,0.359-0.583l0.195,0.143c-0.13,0.497-0.34,0.863-0.628,1.099
			s-0.625,0.354-1.009,0.354c-0.289,0-0.582-0.078-0.879-0.235s-0.622-0.421-0.974-0.795c-0.437,0.387-0.83,0.656-1.181,0.806
			c-0.35,0.149-0.724,0.224-1.122,0.224c-0.581,0-1.042-0.155-1.384-0.465c-0.341-0.31-0.512-0.679-0.512-1.109
			c0-0.426,0.153-0.851,0.459-1.275s0.882-0.863,1.727-1.317c-0.166-0.366-0.278-0.667-0.338-0.9c-0.06-0.234-0.09-0.459-0.09-0.673
			c0-0.602,0.222-1.062,0.666-1.378c0.345-0.247,0.737-0.37,1.178-0.37c0.419,0,0.76,0.125,1.024,0.373s0.396,0.554,0.396,0.917
			c0,0.373-0.127,0.7-0.383,0.982s-0.707,0.59-1.354,0.924c0.447,0.796,0.914,1.524,1.399,2.187c0.62-0.739,0.929-1.363,0.929-1.87
			c0-0.162-0.053-0.306-0.158-0.433c-0.078-0.095-0.188-0.151-0.333-0.169V41.879z M122.489,45.317
			c-0.464-0.634-0.787-1.097-0.966-1.389c-0.18-0.292-0.377-0.655-0.591-1.088c-0.423,0.243-0.74,0.511-0.954,0.803
			c-0.213,0.292-0.319,0.609-0.319,0.951c0,0.377,0.122,0.708,0.364,0.993c0.243,0.286,0.57,0.428,0.982,0.428
			c0.222,0,0.436-0.044,0.642-0.132C121.853,45.794,122.134,45.606,122.489,45.317z M121.671,42.017
			c0.437-0.208,0.763-0.444,0.979-0.708c0.217-0.264,0.325-0.558,0.325-0.882c0-0.253-0.078-0.463-0.235-0.628
			c-0.157-0.165-0.351-0.248-0.583-0.248c-0.306,0-0.538,0.106-0.694,0.319c-0.157,0.213-0.235,0.422-0.235,0.626
			c0,0.172,0.03,0.365,0.09,0.578C121.377,41.287,121.495,41.601,121.671,42.017z"/>
		<path fill="#373737" d="M135.798,39.165l0.164,2.435h-0.164c-0.219-0.729-0.53-1.253-0.935-1.574
			c-0.405-0.32-0.891-0.48-1.458-0.48c-0.476,0-0.904,0.121-1.288,0.362s-0.687,0.626-0.906,1.154c-0.22,0.528-0.33,1.185-0.33,1.97
			c0,0.647,0.104,1.209,0.312,1.685c0.208,0.475,0.521,0.84,0.938,1.093s0.894,0.38,1.429,0.38c0.465,0,0.875-0.099,1.23-0.298
			c0.355-0.199,0.746-0.594,1.173-1.186l0.163,0.106c-0.359,0.637-0.778,1.104-1.257,1.399c-0.479,0.295-1.047,0.443-1.706,0.443
			c-1.187,0-2.105-0.44-2.757-1.32c-0.485-0.655-0.729-1.426-0.729-2.313c0-0.715,0.16-1.371,0.48-1.97s0.762-1.062,1.323-1.392
			s1.175-0.494,1.841-0.494c0.518,0,1.027,0.127,1.531,0.38c0.147,0.078,0.254,0.116,0.316,0.116c0.096,0,0.178-0.033,0.249-0.1
			c0.091-0.095,0.156-0.227,0.195-0.396H135.798z"/>
		<path fill="#373737" d="M139.204,41.51c0.732,0,1.32,0.278,1.764,0.834c0.377,0.475,0.565,1.021,0.565,1.637
			c0,0.433-0.104,0.872-0.312,1.315c-0.208,0.443-0.494,0.778-0.858,1.003c-0.364,0.225-0.771,0.338-1.218,0.338
			c-0.729,0-1.308-0.291-1.737-0.872c-0.362-0.489-0.544-1.039-0.544-1.647c0-0.444,0.11-0.885,0.33-1.323
			c0.22-0.438,0.51-0.762,0.869-0.972C138.422,41.614,138.803,41.51,139.204,41.51z M139.04,41.853
			c-0.187,0-0.374,0.055-0.562,0.166c-0.188,0.111-0.341,0.306-0.457,0.584c-0.115,0.278-0.174,0.635-0.174,1.072
			c0,0.704,0.14,1.312,0.42,1.822c0.28,0.51,0.648,0.766,1.106,0.766c0.342,0,0.623-0.141,0.845-0.422s0.333-0.766,0.333-1.453
			c0-0.859-0.185-1.535-0.555-2.028C139.746,42.022,139.428,41.853,139.04,41.853z"/>
		<path fill="#373737" d="M146.487,41.652v2.931c0,0.56,0.013,0.902,0.039,1.027s0.069,0.212,0.127,0.262s0.126,0.074,0.203,0.074
			c0.109,0,0.232-0.03,0.37-0.09l0.073,0.185l-1.446,0.597h-0.238v-1.024c-0.415,0.451-0.732,0.734-0.95,0.85
			c-0.219,0.116-0.449,0.174-0.692,0.174c-0.271,0-0.506-0.079-0.704-0.235c-0.199-0.157-0.338-0.358-0.415-0.605
			c-0.077-0.246-0.116-0.595-0.116-1.045v-2.16c0-0.229-0.024-0.387-0.074-0.475c-0.049-0.088-0.122-0.156-0.219-0.204
			s-0.272-0.069-0.525-0.066v-0.195h1.695v3.237c0,0.451,0.078,0.747,0.234,0.887c0.157,0.141,0.347,0.211,0.568,0.211
			c0.151,0,0.322-0.047,0.515-0.143c0.191-0.095,0.42-0.276,0.684-0.544v-2.741c0-0.274-0.05-0.46-0.15-0.557
			s-0.309-0.149-0.626-0.156v-0.195H146.487z"/>
		<path fill="#373737" d="M149.064,42.534c0.566-0.683,1.107-1.024,1.621-1.024c0.265,0,0.491,0.066,0.682,0.198
			c0.19,0.132,0.342,0.35,0.454,0.652c0.077,0.211,0.116,0.535,0.116,0.972v2.065c0,0.306,0.024,0.514,0.074,0.623
			c0.038,0.088,0.101,0.157,0.188,0.206c0.086,0.049,0.245,0.074,0.478,0.074v0.19h-2.393V46.3h0.101
			c0.226,0,0.383-0.035,0.473-0.103c0.09-0.069,0.152-0.17,0.188-0.304c0.014-0.053,0.021-0.218,0.021-0.497v-1.98
			c0-0.44-0.058-0.759-0.172-0.958c-0.114-0.199-0.308-0.298-0.578-0.298c-0.419,0-0.837,0.229-1.252,0.687v2.551
			c0,0.328,0.02,0.53,0.059,0.607c0.049,0.102,0.116,0.177,0.203,0.225c0.086,0.047,0.261,0.071,0.525,0.071v0.19h-2.393V46.3h0.105
			c0.246,0,0.413-0.062,0.499-0.188c0.087-0.125,0.13-0.364,0.13-0.716v-1.795c0-0.581-0.014-0.935-0.04-1.062
			c-0.026-0.127-0.066-0.213-0.121-0.259s-0.128-0.069-0.22-0.069c-0.099,0-0.216,0.026-0.354,0.079l-0.079-0.19l1.457-0.591h0.228
			V42.534z"/>
		<path fill="#373737" d="M156.189,41.51v1.647h-0.175c-0.134-0.518-0.306-0.87-0.515-1.056c-0.21-0.187-0.477-0.28-0.8-0.28
			c-0.247,0-0.446,0.065-0.598,0.195s-0.227,0.274-0.227,0.433c0,0.197,0.057,0.366,0.169,0.507
			c0.109,0.145,0.331,0.298,0.665,0.459l0.771,0.375c0.715,0.349,1.072,0.808,1.072,1.378c0,0.44-0.167,0.795-0.499,1.064
			c-0.333,0.27-0.705,0.404-1.117,0.404c-0.296,0-0.634-0.053-1.014-0.159c-0.116-0.035-0.212-0.053-0.285-0.053
			c-0.081,0-0.145,0.046-0.19,0.137h-0.175v-1.727h0.175c0.099,0.493,0.287,0.864,0.565,1.114c0.277,0.25,0.589,0.375,0.935,0.375
			c0.242,0,0.44-0.071,0.594-0.214s0.229-0.314,0.229-0.515c0-0.243-0.085-0.447-0.256-0.613c-0.171-0.165-0.512-0.375-1.021-0.628
			c-0.511-0.253-0.846-0.482-1.004-0.687c-0.158-0.201-0.237-0.454-0.237-0.76c0-0.398,0.136-0.73,0.409-0.998
			c0.272-0.268,0.626-0.401,1.059-0.401c0.19,0,0.421,0.041,0.692,0.121c0.179,0.053,0.299,0.08,0.358,0.08
			c0.057,0,0.101-0.012,0.133-0.037c0.031-0.024,0.068-0.079,0.11-0.164H156.189z"/>
		<path fill="#373737" d="M158.085,43.474c-0.004,0.718,0.171,1.282,0.522,1.69c0.353,0.409,0.766,0.613,1.241,0.613
			c0.317,0,0.593-0.087,0.826-0.262c0.234-0.174,0.431-0.473,0.589-0.895l0.164,0.106c-0.074,0.482-0.289,0.921-0.645,1.317
			s-0.801,0.594-1.336,0.594c-0.581,0-1.078-0.226-1.492-0.679c-0.413-0.452-0.62-1.061-0.62-1.825c0-0.827,0.212-1.473,0.637-1.936
			c0.424-0.463,0.956-0.694,1.598-0.694c0.542,0,0.987,0.179,1.336,0.536s0.522,0.835,0.522,1.434H158.085z M158.085,43.168h2.239
			c-0.018-0.31-0.055-0.528-0.111-0.655c-0.088-0.197-0.219-0.352-0.394-0.465c-0.174-0.113-0.356-0.169-0.546-0.169
			c-0.293,0-0.554,0.113-0.784,0.34C158.258,42.447,158.124,42.763,158.085,43.168z"/>
		<path fill="#373737" d="M163.736,38.98v6.417c0,0.303,0.021,0.503,0.065,0.602s0.112,0.173,0.203,0.225
			c0.092,0.051,0.263,0.077,0.513,0.077v0.19h-2.371V46.3c0.222,0,0.373-0.023,0.454-0.069s0.145-0.122,0.19-0.227
			c0.045-0.105,0.068-0.308,0.068-0.607v-4.394c0-0.545-0.013-0.881-0.037-1.006s-0.064-0.21-0.119-0.256
			c-0.055-0.045-0.124-0.068-0.208-0.068c-0.092,0-0.208,0.028-0.349,0.084l-0.09-0.185l1.441-0.591H163.736z"/>
		<path fill="#373737" d="M167.443,41.51c0.732,0,1.32,0.278,1.764,0.834c0.377,0.475,0.565,1.021,0.565,1.637
			c0,0.433-0.104,0.872-0.312,1.315c-0.208,0.443-0.494,0.778-0.858,1.003c-0.364,0.225-0.771,0.338-1.218,0.338
			c-0.729,0-1.308-0.291-1.737-0.872c-0.362-0.489-0.544-1.039-0.544-1.647c0-0.444,0.11-0.885,0.33-1.323
			c0.22-0.438,0.51-0.762,0.869-0.972C166.661,41.614,167.042,41.51,167.443,41.51z M167.279,41.853
			c-0.187,0-0.374,0.055-0.562,0.166c-0.188,0.111-0.341,0.306-0.457,0.584c-0.115,0.278-0.174,0.635-0.174,1.072
			c0,0.704,0.14,1.312,0.42,1.822c0.28,0.51,0.648,0.766,1.106,0.766c0.342,0,0.623-0.141,0.845-0.422s0.333-0.766,0.333-1.453
			c0-0.859-0.185-1.535-0.555-2.028C167.985,42.022,167.667,41.853,167.279,41.853z"/>
		<path fill="#373737" d="M171.9,41.51v1.088c0.405-0.726,0.82-1.088,1.247-1.088c0.193,0,0.354,0.059,0.48,0.177
			c0.127,0.118,0.189,0.254,0.189,0.409c0,0.137-0.045,0.253-0.137,0.349s-0.201,0.143-0.327,0.143
			c-0.124,0-0.262-0.061-0.415-0.182s-0.267-0.182-0.341-0.182c-0.063,0-0.132,0.035-0.206,0.105
			c-0.158,0.145-0.322,0.382-0.491,0.713v2.318c0,0.268,0.034,0.47,0.101,0.607c0.046,0.095,0.127,0.174,0.243,0.238
			s0.283,0.095,0.502,0.095v0.19h-2.478V46.3c0.247,0,0.43-0.039,0.55-0.116c0.088-0.057,0.149-0.146,0.185-0.27
			c0.018-0.06,0.026-0.23,0.026-0.512v-1.875c0-0.563-0.012-0.898-0.034-1.006c-0.023-0.107-0.065-0.186-0.127-0.235
			s-0.138-0.074-0.229-0.074c-0.109,0-0.232,0.026-0.37,0.079l-0.053-0.19l1.463-0.591H171.9z"/>
		<path fill="#373737" d="M177.214,41.51v1.647h-0.175c-0.134-0.518-0.306-0.87-0.515-1.056c-0.21-0.187-0.477-0.28-0.8-0.28
			c-0.247,0-0.446,0.065-0.598,0.195s-0.227,0.274-0.227,0.433c0,0.197,0.057,0.366,0.169,0.507
			c0.109,0.145,0.331,0.298,0.665,0.459l0.771,0.375c0.715,0.349,1.072,0.808,1.072,1.378c0,0.44-0.167,0.795-0.499,1.064
			c-0.333,0.27-0.705,0.404-1.117,0.404c-0.296,0-0.634-0.053-1.014-0.159c-0.116-0.035-0.212-0.053-0.285-0.053
			c-0.081,0-0.145,0.046-0.19,0.137h-0.175v-1.727h0.175c0.099,0.493,0.287,0.864,0.565,1.114c0.277,0.25,0.589,0.375,0.935,0.375
			c0.242,0,0.44-0.071,0.594-0.214s0.229-0.314,0.229-0.515c0-0.243-0.085-0.447-0.256-0.613c-0.171-0.165-0.512-0.375-1.021-0.628
			c-0.511-0.253-0.846-0.482-1.004-0.687c-0.158-0.201-0.237-0.454-0.237-0.76c0-0.398,0.136-0.73,0.409-0.998
			c0.272-0.268,0.626-0.401,1.059-0.401c0.19,0,0.421,0.041,0.692,0.121c0.179,0.053,0.299,0.08,0.358,0.08
			c0.057,0,0.101-0.012,0.133-0.037c0.031-0.024,0.068-0.079,0.11-0.164H177.214z"/>
	</g>
	<line clip-path="url(#SVGID_2_)" fill="none" stroke="#373737" stroke-miterlimit="10" x1="31" y1="43.5" x2="70" y2="43.5"/>
	<line clip-path="url(#SVGID_2_)" fill="none" stroke="#373737" stroke-miterlimit="10" x1="181" y1="43.5" x2="222" y2="43.5"/>
	<g clip-path="url(#SVGID_2_)">
		<path fill="#373737" d="M94.197,89.924h-5.383l-0.943,2.194c-0.232,0.54-0.349,0.943-0.349,1.21c0,0.212,0.101,0.398,0.303,0.559
			c0.201,0.161,0.637,0.266,1.307,0.312v0.38h-4.378v-0.38c0.581-0.102,0.957-0.235,1.128-0.399
			c0.349-0.328,0.735-0.995,1.159-1.999l4.891-11.443h0.359l4.84,11.566c0.39,0.93,0.744,1.532,1.061,1.81
			c0.318,0.276,0.761,0.433,1.328,0.466v0.38h-5.486v-0.38c0.554-0.027,0.928-0.119,1.123-0.276
			c0.195-0.157,0.292-0.349,0.292-0.574c0-0.301-0.137-0.776-0.41-1.425L94.197,89.924z M93.91,89.165l-2.358-5.619l-2.42,5.619
			H93.91z"/>
		<path fill="#373737" d="M103.139,82.1v3.087h2.194v0.718h-2.194v6.091c0,0.608,0.087,1.019,0.262,1.23
			c0.174,0.212,0.398,0.317,0.671,0.317c0.226,0,0.444-0.069,0.656-0.21c0.212-0.14,0.376-0.347,0.492-0.62h0.4
			c-0.239,0.67-0.578,1.174-1.015,1.513c-0.438,0.338-0.889,0.507-1.354,0.507c-0.314,0-0.622-0.087-0.923-0.261
			c-0.301-0.175-0.523-0.424-0.667-0.749c-0.144-0.324-0.215-0.825-0.215-1.502v-6.316H99.96v-0.338
			c0.376-0.15,0.76-0.405,1.153-0.765c0.393-0.358,0.744-0.784,1.051-1.276c0.157-0.26,0.376-0.734,0.656-1.426H103.139z"/>
		<path fill="#373737" d="M108.973,82.1v3.087h2.194v0.718h-2.194v6.091c0,0.608,0.087,1.019,0.262,1.23
			c0.174,0.212,0.398,0.317,0.671,0.317c0.226,0,0.444-0.069,0.656-0.21c0.212-0.14,0.376-0.347,0.492-0.62h0.4
			c-0.239,0.67-0.578,1.174-1.015,1.513c-0.438,0.338-0.889,0.507-1.354,0.507c-0.314,0-0.622-0.087-0.923-0.261
			c-0.301-0.175-0.523-0.424-0.667-0.749c-0.144-0.324-0.215-0.825-0.215-1.502v-6.316h-1.487v-0.338
			c0.376-0.15,0.76-0.405,1.153-0.765c0.393-0.358,0.744-0.784,1.051-1.276c0.157-0.26,0.376-0.734,0.656-1.426H108.973z"/>
		<path fill="#373737" d="M116.674,84.91c1.422,0,2.563,0.539,3.425,1.619c0.731,0.924,1.097,1.982,1.097,3.18
			c0,0.84-0.202,1.691-0.605,2.553s-0.959,1.511-1.666,1.948c-0.708,0.438-1.496,0.656-2.364,0.656c-1.415,0-2.54-0.563-3.374-1.692
			c-0.704-0.949-1.056-2.016-1.056-3.199c0-0.861,0.213-1.717,0.641-2.568c0.427-0.851,0.989-1.479,1.687-1.887
			C115.156,85.113,115.895,84.91,116.674,84.91z M116.356,85.576c-0.362,0-0.727,0.107-1.092,0.323
			c-0.366,0.215-0.661,0.593-0.887,1.133s-0.338,1.233-0.338,2.081c0,1.367,0.272,2.547,0.815,3.538
			c0.544,0.991,1.26,1.487,2.148,1.487c0.663,0,1.21-0.273,1.641-0.82s0.646-1.487,0.646-2.82c0-1.668-0.359-2.98-1.077-3.938
			C117.727,85.904,117.108,85.576,116.356,85.576z"/>
		<path fill="#373737" d="M125.328,84.91v2.111c0.786-1.408,1.593-2.111,2.42-2.111c0.376,0,0.688,0.114,0.934,0.343
			c0.246,0.229,0.369,0.494,0.369,0.795c0,0.267-0.09,0.492-0.268,0.677s-0.389,0.277-0.635,0.277c-0.24,0-0.508-0.118-0.806-0.354
			c-0.297-0.235-0.518-0.354-0.661-0.354c-0.123,0-0.256,0.068-0.4,0.205c-0.308,0.28-0.625,0.741-0.954,1.384v4.502
			c0,0.52,0.065,0.912,0.195,1.18c0.089,0.184,0.246,0.338,0.472,0.461s0.55,0.185,0.974,0.185v0.369h-4.809V94.21
			c0.479,0,0.834-0.075,1.066-0.226c0.171-0.109,0.291-0.283,0.359-0.523c0.034-0.115,0.051-0.447,0.051-0.994v-3.641
			c0-1.094-0.022-1.744-0.067-1.953c-0.044-0.208-0.126-0.36-0.246-0.456s-0.268-0.144-0.446-0.144
			c-0.212,0-0.451,0.051-0.718,0.154l-0.103-0.369l2.84-1.148H125.328z"/>
		<path fill="#373737" d="M132.311,86.898c1.102-1.326,2.15-1.988,3.148-1.988c0.513,0,0.953,0.128,1.322,0.384
			c0.369,0.257,0.664,0.679,0.883,1.267c0.15,0.41,0.225,1.039,0.225,1.887v4.01c0,0.594,0.049,0.998,0.145,1.209
			c0.074,0.172,0.195,0.305,0.363,0.4s0.477,0.144,0.928,0.144v0.369h-4.645V94.21h0.195c0.438,0,0.743-0.066,0.917-0.2
			c0.175-0.133,0.296-0.33,0.364-0.59c0.027-0.102,0.041-0.424,0.041-0.963v-3.846c0-0.854-0.111-1.475-0.333-1.861
			c-0.223-0.386-0.597-0.579-1.123-0.579c-0.813,0-1.624,0.444-2.431,1.333v4.953c0,0.635,0.038,1.028,0.113,1.179
			c0.096,0.198,0.227,0.344,0.395,0.436c0.168,0.093,0.508,0.139,1.021,0.139v0.369h-4.646V94.21h0.205
			c0.479,0,0.802-0.121,0.97-0.364c0.167-0.242,0.251-0.705,0.251-1.389v-3.486c0-1.129-0.025-1.815-0.077-2.062
			c-0.051-0.246-0.13-0.413-0.235-0.503c-0.106-0.088-0.248-0.133-0.426-0.133c-0.191,0-0.42,0.051-0.688,0.154l-0.153-0.369
			l2.83-1.148h0.44V86.898z"/>
		<path fill="#373737" d="M141.652,88.725c-0.007,1.395,0.332,2.488,1.016,3.281s1.486,1.189,2.409,1.189
			c0.615,0,1.149-0.17,1.604-0.508c0.455-0.339,0.836-0.918,1.144-1.738l0.317,0.205c-0.143,0.937-0.561,1.789-1.25,2.559
			c-0.691,0.769-1.556,1.153-2.595,1.153c-1.128,0-2.094-0.438-2.896-1.317c-0.804-0.879-1.205-2.06-1.205-3.543
			c0-1.606,0.411-2.859,1.235-3.758s1.857-1.349,3.102-1.349c1.053,0,1.918,0.347,2.595,1.041s1.015,1.622,1.015,2.784H141.652z
			 M141.652,88.129H146c-0.034-0.602-0.105-1.025-0.215-1.271c-0.172-0.383-0.426-0.684-0.765-0.902
			c-0.338-0.219-0.692-0.328-1.062-0.328c-0.566,0-1.074,0.221-1.522,0.662C141.988,86.729,141.728,87.344,141.652,88.129z"/>
		<path fill="#373737" d="M148.861,85.187h4.378v0.38h-0.216c-0.307,0-0.537,0.066-0.691,0.199c-0.154,0.134-0.23,0.299-0.23,0.498
			c0,0.266,0.112,0.635,0.338,1.107l2.287,4.736l2.102-5.188c0.116-0.281,0.174-0.558,0.174-0.831c0-0.123-0.023-0.216-0.071-0.276
			c-0.055-0.076-0.14-0.135-0.257-0.18c-0.115-0.045-0.32-0.066-0.615-0.066v-0.38h3.057v0.38c-0.254,0.027-0.448,0.082-0.585,0.164
			s-0.287,0.235-0.451,0.461c-0.062,0.096-0.178,0.359-0.349,0.789l-3.824,9.373c-0.369,0.908-0.854,1.596-1.451,2.061
			c-0.599,0.465-1.174,0.697-1.729,0.697c-0.402,0-0.734-0.116-0.994-0.349s-0.39-0.499-0.39-0.8c0-0.287,0.094-0.518,0.282-0.692
			c0.188-0.174,0.445-0.261,0.773-0.261c0.227,0,0.533,0.074,0.924,0.225c0.273,0.104,0.443,0.154,0.512,0.154
			c0.205,0,0.43-0.105,0.672-0.318c0.242-0.211,0.487-0.621,0.733-1.23l0.667-1.63l-3.374-7.085
			c-0.103-0.213-0.267-0.476-0.492-0.79c-0.171-0.239-0.312-0.399-0.421-0.481c-0.156-0.109-0.41-0.205-0.758-0.287V85.187z"/>
		<path fill="#373737" d="M165.965,84.91v3.199h-0.339c-0.26-1.006-0.593-1.689-0.999-2.051c-0.408-0.363-0.926-0.544-1.555-0.544
			c-0.479,0-0.864,0.126-1.158,0.38c-0.294,0.252-0.441,0.533-0.441,0.84c0,0.383,0.109,0.711,0.328,0.984
			c0.213,0.281,0.643,0.578,1.293,0.893l1.496,0.729c1.389,0.676,2.082,1.568,2.082,2.676c0,0.854-0.322,1.543-0.969,2.066
			c-0.646,0.522-1.369,0.784-2.169,0.784c-0.574,0-1.23-0.103-1.969-0.308c-0.226-0.068-0.41-0.103-0.554-0.103
			c-0.157,0-0.28,0.089-0.369,0.267h-0.338v-3.354h0.338c0.191,0.957,0.557,1.679,1.098,2.164c0.539,0.485,1.145,0.729,1.814,0.729
			c0.472,0,0.855-0.139,1.154-0.416c0.297-0.276,0.445-0.609,0.445-1c0-0.471-0.166-0.867-0.498-1.189
			c-0.331-0.32-0.992-0.728-1.983-1.22s-1.641-0.937-1.948-1.333c-0.308-0.39-0.461-0.882-0.461-1.477
			c0-0.772,0.264-1.418,0.795-1.938c0.529-0.52,1.215-0.779,2.055-0.779c0.369,0,0.817,0.078,1.344,0.235
			c0.349,0.103,0.581,0.153,0.697,0.153c0.109,0,0.195-0.023,0.256-0.071c0.062-0.048,0.134-0.153,0.216-0.317H165.965z"/>
	</g>
	<g clip-path="url(#SVGID_2_)">
		<defs>
			<rect id="SVGID_7_" x="-9" y="-9" width="270" height="162"/>
		</defs>
		<clipPath id="SVGID_8_">
			<use xlink:href="#SVGID_7_"  overflow="visible"/>
		</clipPath>
	</g>
</g>
</svg>
