<?xml version="1.0" encoding="utf-8"?>
<!-- Generator: Adobe Illustrator 14.0.0, SVG Export Plug-In . SVG Version: 6.00 Build 43363)  -->
<!DOCTYPE svg PUBLIC "-//W3C//DTD SVG 1.1//EN" "http://www.w3.org/Graphics/SVG/1.1/DTD/svg11.dtd">
<svg version="1.1" id="Layer_1" xmlns="http://www.w3.org/2000/svg" xmlns:xlink="http://www.w3.org/1999/xlink" x="0px" y="0px"
	 width="286.59px" height="334.767px" viewBox="0 0 286.59 334.767" enable-background="new 0 0 286.59 334.767"
	 xml:space="preserve">
<g>
	<path d="M90.309,156.782c0,0,2.068,8.585-14.729,20.472c-16.797,11.888-33.967,26.564-38.59,43.881
		c-4.622,17.317,17.566,53.459,17.566,53.459s-6.339-30.894,2.246-44.928c9.352-15.287,27.751-29.211,33.506-39.203
		C97.155,178.576,90.309,156.782,90.309,156.782"/>
	<path d="M96.238,197.984c0,0,5.612,21.187,4.456,31.683c-1.157,10.496-12.405,18.853-16.368,32.72
		c-3.962,13.869,5.454,43.266,5.454,43.266s-28.397-24.568-26.527-42.985c1.871-18.416,17.612-26.702,23.887-38.669
		C93.413,212.03,96.238,197.984,96.238,197.984"/>
	<path d="M114.876,233.849c0,0-13.864,11.207-14.176,24.415s4.742,24.036,5.224,37.904s-2.055,25.978-2.055,25.978
		s17.987-11.008,21.376-22.896c3.388-11.888-3.992-24.07-8.635-39.92C111.967,243.481,114.876,233.849,114.876,233.849"/>
	<path d="M25.792,215.008c0,0-2.162-36.653,10.132-47.88c12.294-11.226,31.446-29.421,32.766-42.778
		c1.321-13.356-5.548-22.717-5.548-22.717s-9.641,14.941-24.83,22.717c-15.189,7.777-35.415,20.744-35.415,39.641
		S25.792,215.008,25.792,215.008"/>
	<path d="M77.452,134.582c0,0-4.8,14.716-10.742,19.339c-5.944,4.623-19.808,15.618-23.601,23.809c-4.643,10.028-3,18.329-3,18.329
		s8.735-14.474,16.808-18.251c5.234-2.45,20.055-7.91,22.004-17.01C81.513,148.687,77.774,133.99,77.452,134.582"/>
	<path d="M136.452,249.351c0,0-10.963,4.932-8.431,16.178c1.456,6.469,5.017,8.504,8.431,12.588
		c4.701,5.626,0.459,18.052,0.459,18.052s11.113-13.765,9.961-20.954c-1.133-7.057-6.752-11.628-8.336-15.003
		C136.302,255.45,136.452,249.351,136.452,249.351"/>
	<path d="M151.127,334.767c0,0-19.153-7.64-19.838-18.199c-0.592-9.138,13.457-13.795,17.675-21.721
		c4.218-7.925,5.704-18.312,5.704-18.312s6.829,10.094,6.194,19.485c-0.637,9.394-7.388,13.796-9.441,19.667
		C149.367,321.558,151.127,334.767,151.127,334.767"/>
	<path d="M154.668,246.123c0,0-4.386,12.327,0,20.84c4.385,8.513,16.957,18.199,15.808,26.711
		c-1.15,8.513-9.456,26.124-9.456,26.124s13.369-7.923,19.167-14.146c3.228-3.465,8.71-16.851,2.545-26.244
		c-6.164-9.393-10.021-9.509-16.213-15.967C160.328,256.982,154.668,246.123,154.668,246.123"/>
	<path d="M201.135,155.461c0,0-2.068,8.585,14.729,20.472c16.797,11.889,33.967,26.564,38.59,43.882
		c4.622,17.316-18.057,59.592-18.057,59.592s5.828-33.34-2.758-47.374c-9.352-15.287-22.209-24.021-27.964-34.012
		C198.83,186.133,201.135,155.461,201.135,155.461"/>
	<path d="M195.207,196.663c0,0-9.56,21.242-8.403,31.738c1.157,10.496,16.353,18.797,20.315,32.665
		c3.962,13.869-5.064,45.848-5.064,45.848s28.008-27.15,26.138-45.567c-1.871-18.416-17.611-26.702-23.887-38.67
		C198.032,210.708,195.207,196.663,195.207,196.663"/>
	<path d="M265.653,213.687c0,0,2.162-36.652-10.132-47.88c-12.294-11.226-31.446-29.421-32.767-42.778
		c-1.32-13.356,5.549-22.717,5.549-22.717s8.125,20.916,23.314,28.692c15.189,7.777,27.928,19.189,27.928,38.086
		C279.545,185.988,265.653,213.687,265.653,213.687"/>
	<path d="M213.993,133.261c0,0,4.8,14.716,10.742,19.339c5.944,4.623,19.808,15.618,23.601,23.809
		c4.643,10.028,3.001,18.329,3.001,18.329s-8.736-14.473-16.809-18.251c-5.234-2.45-20.055-7.91-22.004-17.01
		C209.932,147.366,213.67,132.669,213.993,133.261"/>
	<path d="M176.933,235.445c0,0-5.227,18.742,4.063,27.113c10.566,9.521,14.233,20.402,14.233,20.402s4.939-11.375-0.073-21.281
		c-2.273-4.492-7.506-7.316-11.154-12.328C179.605,243.311,176.933,235.445,176.933,235.445"/>
	<path d="M164.629,144.672c0.671-4.122,0.653-9.581,1.046-13.3c0,0,1.313-6.632,2.587-7.761c1.273-1.128,3-1.898,3.907-2.917
		c0.908-1.018,1.706-4.311,2.88-5.338c1.175-1.027,4.771,0.073,7.192,0c2.421-0.073,5.652-1.276,7.338-3.412
		c2.054-2.605,7.191-6.128,7.191-6.128s-6.751-1.706-9.687-2.027c-2.935-0.321-6.458,0.074-8.512,0.72
		c-2.055,0.647-5.431,3.889-6.458,4.837c-1.027,0.947-4.771,7.925-5.614,10.416c-0.844,2.492-1.504,7.115-1.871,10.124
		C164.262,132.894,164.629,144.672,164.629,144.672"/>
	<path d="M161.034,107.797c0,0,4.574-0.367,6.85-1.321c2.274-0.954,5.791-4.422,6.231-5.596c0.44-1.175,0.617-5.411,0.617-5.411
		s-4.524,6.164-10.983,8.586C161.109,105.044,161.034,107.797,161.034,107.797"/>
	<path d="M156.705,80.793c0,0-3.742-0.881-5.283-2.348c-1.541-1.468-4.33-4.697-5.063-6.898c-0.734-2.202-0.44-4.036,0.66-4.917
		c1.101-0.88,2.055-0.88,2.055-0.88s-0.367,2.421,1.027,4.77c1.395,2.348,2.349,3.595,3.303,4.99
		C154.356,76.904,156.705,80.793,156.705,80.793"/>
	<path d="M130.801,80.353c0,0,3.011-0.208,5.209-1.761c2.603-1.838,3.155-2.422,4.477-5.32c1.321-2.899,1.762-5.834,0-6.935
		c-1.761-1.101-3.008-0.587-3.008-0.587s0.88,1.981-0.147,4.109c-1.026,2.128-2.422,4.403-3.449,5.798
		C132.856,77.051,130.801,80.353,130.801,80.353"/>
	<path d="M214.272,104.899c0,0-0.55-3.266-4.293-9.43c-2.01-3.31-6.494-8.072-9.905-11.484c-3.413-3.412-6.825-6.934-10.348-12.328
		c-3.521-5.393-4.183-10.787-4.402-13.099c-0.221-2.311,0.659-4.402,0.659-4.402s1.541,2.421,3.964,5.283
		c2.422,2.862,4.072,1.568,5.504,5.394c1.431,3.825,3.412,9.796,5.393,12.438c1.981,2.642,5.614,5.173,8.146,10.347
		c2.53,5.173,4.985,6.487,5.427,10.45C214.856,102.03,214.272,104.899,214.272,104.899"/>
	<path d="M199.934,58.889c0,0-2.062-4.733-3.273-6.164s-3.853-3.302-3.853-3.302s5.173-1.541,8.146-4.513
		c2.972-2.972,7.815-7.705,9.356-9.026c1.541-1.321,2.862-2.862,5.283-2.202c2.422,0.661,7.045,4.073,7.045,4.073
		s-3.743-0.11-6.715,0.11c-2.972,0.22-6.714,3.412-8.695,5.614c-1.981,2.201-3.963,4.843-4.623,7.265
		c-0.661,2.421,0.092,2.983-0.44,5.008C201.614,57.842,199.934,58.889,199.934,58.889"/>
	<path d="M167.932,198.02c0,0,9.576-1.98,11.777-2.861c2.201-0.88,4.953-3.412,5.613-6.274c0.661-2.862,0.551-12.548,0.551-15.52
		c0-2.973,0.44-11.999,1.541-14.86c1.102-2.862,6.714-10.824,8.696-13.833c1.981-3.008,5.944-8.072,8.035-11.814
		c2.091-3.742,1.431-11.007,1.431-11.007s-0.538,6.247-1.706,8.806c-1.155,2.531-6.183,9.319-8.53,11.631
		c-2.222,2.186-4.635,4.504-6.422,7.154c-1.71,2.536-3.815,5.871-3.815,5.871s-1.871-0.991-3.412-5.504
		c-1.012-2.964-2.642-7.815-2.642-7.815s-0.222,1.655,0.221,5.173c0.333,2.66,2.293,7.341,3.062,10.093
		c0.771,2.752,1.229,1.795,1.229,5.538c0,3.742,0,6.384-0.22,10.677c-0.221,4.293-0.714,7.925-2.724,9.796
		c-2.01,1.872-3.771,3.082-3.771,3.082s3.963-0.88,4.843-1.32c0.881-0.44,2.202-1.21,2.202-1.21s0.33,2.751-0.771,4.623
		c-1.101,1.87-1.98,3.632-4.513,5.062C176.681,194.597,167.932,198.02,167.932,198.02"/>
	<path d="M224.803,87.911l4.695-6.091c0,0,3.523-4.403,4.036-6.971c0.514-2.568-1.027-8.072-1.027-10.714
		c0-2.641-1.026-8.145-1.026-8.145s-1.248,3.522-1.248,6.531c0,3.009,0.146,6.311-0.147,9.429c-0.293,3.119-1.834,6.788-2.715,8.77
		C226.491,82.701,224.803,87.911,224.803,87.911"/>
	<path d="M209.759,64.723c2.972,2.752,7.265,4.623,9.136,6.054s5.063,5.394,5.063,5.394s1.321-3.523,0-5.174
		c-1.321-1.651-6.788-4.073-8.622-5.944c-1.835-1.871-4.806-3.082-5.797-4.513c-0.991-1.431-2.532-4.549-2.532-4.549
		S206.788,61.97,209.759,64.723"/>
	<path d="M158.172,206.349c0,0-6.164-2.201-8.072-4.109c-1.908-1.907-4.55-4.257-4.55-6.752c0-2.493-0.091-6.7,1.027-9.099
		c1.027-2.201,3.082-3.229,6.312-4.403c3.228-1.174,3.962-1.026,5.136-2.054c1.174-1.028,1.321-1.908,2.495-3.67
		c1.174-1.761,4.697-3.082,5.724-4.989c1.027-1.908,1.688-7.191,1.688-7.191s-1.046,1.155-2.367,2.623s-1.669,1.927-4.311,3.394
		c-2.643,1.468-5.138,2.202-7.926,2.202c-2.789,0-15.264-0.44-17.317-0.294c-2.056,0.146-8.896-0.111-11.097-1.579
		s-4.313-6.346-4.313-6.346s-0.6,3.055,0.427,5.844c1.027,2.788,4.416,3.109,5.443,5.896c1.027,2.789,0.439,2.789,2.201,3.964
		c1.762,1.174,3.155,0.997,5.191,1.778c2.546,0.979,3.443,1.187,4.936,2.478c1.403,1.215,2.754,2.477,2.936,6.164
		c0.223,4.55,0.873,5.797-0.811,7.814c-1.685,2.019-3.005,2.899-4.768,4.514c-1.761,1.614-6.31,3.815-6.31,3.815
		s7.663-2.257,11.282-2.22c2.642,0.028,2.778,0.083,5.595,0.165C149.257,204.37,158.172,206.349,158.172,206.349"/>
	<path d="M125.114,107.797c0,0-1.762-2.568-3.632-4.66c-1.872-2.091-4.733-3.082-6.165-3.632c-1.431-0.55-4.183-2.715-4.183-2.715
		s0.514,4.109,3.375,5.503c2.862,1.395,3.157,2.348,5.087,3.525C121.352,106.89,125.114,107.797,125.114,107.797"/>
	<path d="M122.582,145.295c0,0,1.432-10.787-0.109-17.281c-1.541-6.495-3.743-12.879-7.266-17.062
		c-3.521-4.182-5.613-6.52-9.686-7.277c-4.073-0.758-7.595,0.233-9.688,1.113c-2.091,0.881-4.732,3.009-4.732,3.009
		s3.223,0.835,5.204,1.935c1.981,1.101,3.821,4.523,7.124,4.963c3.303,0.44,7.154-1.321,9.025,0.44
		c1.872,1.761,2.569,4.917,2.569,4.917s3.682,3.906,4.476,6.604C121.702,134.142,122.582,145.295,122.582,145.295"/>
	<path d="M74.04,103.406c0,0,1.981-7.203,4.403-10.725S90.221,81.564,94.954,75.29c4.733-6.274,5.173-7.815,6.055-11.998
		c0.88-4.183-0.552-9.797-0.552-9.797s-5.062,6.274-7.153,8.806c-2.093,2.532-0.991,8.035-5.174,11.998s-7.265,8.586-9.906,12.989
		C75.581,91.69,74.04,103.406,74.04,103.406"/>
	<path d="M64.133,39.406c0,0,2.709-2.305,5.322-2.452c3.374-0.19,5.245,0.691,7.336,2.892c2.092,2.202,4.852,6.682,6.495,10.127
		c1.419,2.976,2.972,9.136,2.972,9.136s0.99-3.192,3.082-5.614c2.091-2.421,5.173-3.412,5.173-3.412s-6.437-5.295-9.821-7.955
		c-3.655-2.871-7.13-6.795-10.652-7.565c-3.787-0.829-6.164-0.441-7.815,1.211C64.574,37.425,64.133,39.406,64.133,39.406"/>
	<path d="M61.751,80.903c0,0-6.459-2.642-7.229-6.935c-0.771-4.292,0.237-17.721,0.237-17.721s1.989,11.447,3.1,14.97
		c1.112,3.522,3.893,5.173,3.893,5.173V80.903z"/>
	<path d="M64.133,75.399c0,0,6.384-7.045,8.035-8.255c1.65-1.211,7.595-4.734,8.586-6.165c0.991-1.43,0.991-2.971,0.991-2.971
		s-4.623,1.1-7.045,3.302c-2.423,2.201-5.056,4.57-6.825,6.384C65.674,69.951,64.133,75.399,64.133,75.399"/>
	<path d="M82.001,123.575c0,0-0.88,3.669,0,6.604c0.882,2.936,6.751,12.108,8.366,14.493c1.614,2.385,6.897,10.09,8.365,15.264
		c1.468,5.173,2.789,12.071,2.642,18.088c-0.146,6.018-0.33,11.777,0.845,13.833c1.174,2.054,3.559,4.365,6.054,4.953
		c2.495,0.587,13.208,1.211,13.208,1.211s-8.512-1.211-10.86-2.093c-2.348-0.88-5.009-2.325-6.311-5.062
		c-1.275-2.68-1.027-6.384-1.027-6.384s1.761,1.467,4.843,2.642c3.082,1.174,9.833,1.174,9.833,1.174s-5.137-1.32-7.19-2.202
		c-2.056-0.88-6.293-2.972-6.898-4.549c-0.605-1.578-1.111-12.543-0.378-16.064c0.734-3.523,3.021-10.793,5.074-15.93
		c2.055-5.137,1.321-13.062,1.321-13.062s0.146,2.202-1.614,7.485c-1.761,5.284-5.944,12.475-5.944,12.475s-2.789-3.449-5.431-7.705
		s-11.667-15.484-12.841-19.006S82.001,123.575,82.001,123.575"/>
	<path d="M116.198,222.236c0,0,0.22-0.881,1.541-2.531c1.321-1.651,2.201-0.99,1.98-3.522c-0.22-2.532-2.421-4.073-2.421-4.073
		s-1.808,3.087-1.541,5.064C116.025,219.15,116.198,222.236,116.198,222.236"/>
	<path d="M118.729,229.942c0,0-1.101-3.742,0-5.944c1.102-2.201,3.743-2.532,3.743-2.532s0.44,0.771,0,3.303
		S118.729,229.942,118.729,229.942"/>
	<path d="M125.884,237.096c0,0-2.862-5.283-2.422-7.155c0.44-1.871,1.431-1.98,1.762-3.302c0.33-1.321,0.66-3.632,0.66-3.632
		s1.321,1.431,1.98,3.521c0.661,2.092-0.989,4.733-1.1,6.274S125.884,237.096,125.884,237.096"/>
	<path d="M131.388,242.49c0,0,0.22-3.632,0-7.045c-0.221-3.412,0-7.044,0-7.044l2.752,2.862c0,0-0.11,4.182-0.882,5.833
		C132.489,238.748,131.388,242.49,131.388,242.49"/>
	<path d="M134.911,244.141c0,0,0.109-4.403,1.32-6.274s2.862-5.834,2.862-5.834s0.55,1.981,3.302,2.312
		c2.752,0.329,5.834-1.763,5.834-1.763s-1.321,1.432,0,2.862s1.761,1.871,2.421,3.633c0.661,1.761,2.092,2.641,2.092,2.641
		s-2.312,0.552-4.183-0.989s-1.431-1.651-4.733-1.651c-3.302,0-4.843,0.55-5.613,1.321
		C137.442,241.168,134.911,244.141,134.911,244.141"/>
	<path d="M156.594,240.619c0,0-3.853-2.201-3.853-6.055c0-3.853,0.771-7.484,0.771-7.484s0.991,1.98,1.981,3.853
		C156.484,232.803,156.594,240.619,156.594,240.619"/>
	<path d="M159.676,237.096c0,0,0.661-3.963,0-6.274c-0.66-2.312-1.541-3.633-1.321-5.118c0.221-1.485,0.79-3.468,0.79-3.468
		s0.972,3.412,2.183,4.844c1.211,1.431,2.972,3.633,1.541,5.724C161.437,234.895,159.676,237.096,159.676,237.096"/>
	<path d="M167.932,229.942c0,0-2.862-1.212-3.412-3.522c-0.551-2.312-0.441-4.954-0.441-4.954s0.221-0.55,2.643,0.771
		c2.422,1.32,2.312,2.091,2.201,3.963C168.813,228.071,167.932,229.942,167.932,229.942"/>
	<path d="M173.215,221.466c0,0-3.1,0.55-4.247-1.651c-1.147-2.202-0.596-4.403-1.036-6.054c-0.441-1.651,0-2.423,0-2.423
		s1.016,0.11,2.543,2.202c1.529,2.092,0.208,3.192,0.869,4.623C172.004,219.595,173.215,221.466,173.215,221.466"/>
	<path d="M144.67,56.247c0,0-10.354-4.803-12.328-10.041c-1.976-5.237-0.846-14.12-1.541-19.36
		c-0.336-2.525-4.66-12.773-10.42-18.837C118.106,5.614,109.593,0,109.593,0s16.07,0.367,21.465,5.283
		c4.838,4.411,9.652,13.792,9.686,18.874c0.043,6.494-0.439,12.827-0.477,17.377C140.235,45.498,144.67,56.247,144.67,56.247"/>
	<path d="M147.165,51.54c0,0-5.844-9.696-1.743-15.434c5.706-7.982,8.227-24.189,12.996-28.885
		c4.681-4.608,20.384-6.047,20.384-6.047s-6.061,6.238-9.289,12.182c-3.229,5.944-6.446,19.203-11.843,26.271
		C153.686,44.845,147.165,51.54,147.165,51.54"/>
	<path d="M9.941,134.564c0,0-2.008-17.301-6.458-26.767c-6.108-12.994-4.035-23.636,5.064-32.398
		c9.099-8.762,18.526-8.85,25.537-13.099c7.01-4.248,16.115-15.235,16.115-15.235s-4.623,12.11-4.623,20.079
		c0,7.968,3.404,13.208,3.404,13.208s-15.557,8.146-26.417,18.272C11.671,108.781,9.941,134.564,9.941,134.564"/>
	<path d="M18.747,129.005c0,0,3.009-19.813,12.915-25.599C46.143,94.948,55.314,86.15,55.314,86.15s1.583,17.678-6.701,21.428
		C25.131,118.207,18.747,129.005,18.747,129.005"/>
	<path d="M28.58,27.408c0,0,18.209-15.74,28.336-17.281c11.771-1.792,31.396-3.523,38.924,5.527
		c5.141,6.18,5.348,11.584,9.644,19.422c3.694,6.741,11.594,13.796,11.594,13.796s-11.601,1.23-18.051-2.247
		c-6.451-3.477-12.433-11.281-20.474-15.805c-6.825-3.839-9.907-5.724-20.694-7.044C49.037,22.695,28.58,27.408,28.58,27.408"/>
	<path d="M126.544,46.206c0,0-9.481-4.757-12.563-10.103c-3.081-5.345-5.198-13.484-6.838-16.29
		C99.173,6.164,82.736,4.256,82.736,4.256s29.915-11.869,42.378,20.18C127.292,30.04,126.544,46.206,126.544,46.206"/>
	<path d="M64.133,28.912c0,0-11.631,3.742-17.354,7.925c-5.725,4.183-5.138,12.246-12.476,17.318
		c-6.491,4.488-14.749,3.082-20.693,7.485S5.905,71.987,5.905,71.987s3.348-11.888,4.182-18.492s3.449-14.639,12.108-19.354
		C30.957,29.371,64.133,28.912,64.133,28.912"/>
	<path d="M276.65,136.326c0,0,2.008-17.301,6.458-26.767c6.107-12.994,4.034-23.636-5.064-32.398s-18.526-8.85-25.537-13.099
		c-7.01-4.248-16.115-15.235-16.115-15.235s4.623,12.11,4.623,20.079c0,7.968-3.403,13.208-3.403,13.208s15.557,8.146,26.417,18.272
		C274.919,110.542,276.65,136.326,276.65,136.326"/>
	<path d="M267.844,130.766c0,0-3.01-19.813-12.916-25.599c-14.48-8.458-23.651-17.256-23.651-17.256s-1.583,17.678,6.701,21.428
		C261.459,119.968,267.844,130.766,267.844,130.766"/>
	<path d="M258.01,29.169c0,0-17.98-18.955-28.107-20.496c-11.771-1.791-31.625-0.308-39.152,8.742
		c-5.141,6.18-5.348,11.584-9.644,19.422c-3.694,6.74-11.595,13.796-11.595,13.796s11.602,1.23,18.053-2.247
		c6.449-3.477,12.432-11.281,20.473-15.805c6.825-3.839,9.907-5.724,20.694-7.044C237.553,24.456,258.01,29.169,258.01,29.169"/>
	<path d="M222.458,30.673c0,0,11.631,3.742,17.354,7.925c5.724,4.183,5.137,12.246,12.476,17.318
		c6.49,4.488,14.748,3.082,20.692,7.485s7.705,10.347,7.705,10.347s-3.348-11.888-4.182-18.492s-3.449-14.639-12.108-19.354
		C255.634,31.132,222.458,30.673,222.458,30.673"/>
	<path d="M157.67,46.625c0,0,14.41-3.508,18.517-9.421c5.504-7.925,7.615-17.452,11.212-21.635
		c4.584-5.331,12.535-8.525,12.535-8.525s-14.275-6.017-19.601-2.054c-5.326,3.962-9.716,21.08-12.328,26.857
		C165.862,36.586,157.67,46.625,157.67,46.625"/>
	<path d="M145.954,26.356c0,0-1.798-8.525-3.449-11.827c-1.65-3.302-6.604-8.916-6.604-8.916s6.329,2.611,9.521,2.395
		c3.192-0.217,9.522-2.395,9.522-2.395s-3.523,4.293-5.284,8.035C147.899,17.392,145.954,26.356,145.954,26.356"/>
</g>
</svg>
