<?xml version="1.0" encoding="utf-8"?>
<!-- Generator: Adobe Illustrator 14.0.0, SVG Export Plug-In . SVG Version: 6.00 Build 43363)  -->
<!DOCTYPE svg PUBLIC "-//W3C//DTD SVG 1.1//EN" "http://www.w3.org/Graphics/SVG/1.1/DTD/svg11.dtd">
<svg version="1.1" id="Layer_1" xmlns="http://www.w3.org/2000/svg" xmlns:xlink="http://www.w3.org/1999/xlink" x="0px" y="0px"
	 width="2000px" height="525.806px" viewBox="0 0 2000 525.806" enable-background="new 0 0 2000 525.806" xml:space="preserve">
<g>
	<path d="M162.1,259.786v39.996h-16.368V199.656h28.285c12.92,0,22.485,2.42,28.695,7.259c6.208,4.84,9.314,12.146,9.314,21.916
		c0,12.464-6.483,21.345-19.45,26.641l28.284,44.31h-18.628l-23.97-39.996H162.1z M162.1,246.226h11.369
		c7.624,0,13.149-1.415,16.573-4.246c3.424-2.831,5.137-7.031,5.137-12.602c0-5.661-1.849-9.725-5.547-12.19
		c-3.698-2.465-9.27-3.698-16.71-3.698H162.1V246.226z"/>
	<path d="M313.864,199.656v64.787c0,7.396-1.587,13.868-4.76,19.416c-3.174,5.547-7.762,9.817-13.766,12.807
		c-6.004,2.991-13.184,4.486-21.539,4.486c-12.419,0-22.076-3.288-28.969-9.862c-6.895-6.574-10.341-15.614-10.341-27.12v-64.514
		h16.437v63.349c0,8.264,1.917,14.36,5.752,18.286c3.835,3.928,9.725,5.89,17.669,5.89c15.432,0,23.148-8.104,23.148-24.312v-63.212
		H313.864z"/>
	<path d="M374.062,299.782h-16.368v-86.086h-29.449v-14.04h75.266v14.04h-29.449V299.782z"/>
	<path d="M495.282,299.782h-18.97l-31.435-45.337l-9.656,7.876v37.461h-16.368V199.656h16.368v47.803
		c4.474-5.479,8.925-10.752,13.354-15.82l27.052-31.983h18.628c-17.487,20.546-30.02,35.179-37.598,43.899L495.282,299.782z"/>
	<path d="M597.394,249.582c0,16.299-4.075,28.969-12.225,38.009c-8.149,9.04-19.689,13.561-34.619,13.561
		c-15.113,0-26.721-4.486-34.825-13.458c-8.105-8.972-12.156-21.721-12.156-38.249c0-16.527,4.075-29.22,12.225-38.078
		c8.15-8.857,19.781-13.286,34.894-13.286c14.884,0,26.39,4.498,34.517,13.492C593.33,220.567,597.394,233.237,597.394,249.582z
		 M520.964,249.582c0,12.327,2.488,21.675,7.465,28.044c4.976,6.369,12.35,9.554,22.121,9.554c9.725,0,17.063-3.15,22.018-9.451
		c4.953-6.301,7.431-15.683,7.431-28.147c0-12.282-2.455-21.596-7.362-27.942c-4.909-6.346-12.225-9.52-21.95-9.52
		c-9.817,0-17.224,3.174-22.224,9.52C523.464,227.986,520.964,237.3,520.964,249.582z"/>
	<path d="M711.286,299.782h-17.807l-16.984-59.719c-0.731-2.603-1.644-6.357-2.739-11.266c-1.096-4.907-1.758-8.321-1.986-10.239
		c-0.457,2.923-1.198,6.712-2.226,11.369c-1.027,4.657-1.883,8.127-2.568,10.41l-16.573,59.445h-17.806l-12.944-50.131
		l-13.149-49.995h16.71l14.313,58.35c2.237,9.36,3.835,17.624,4.794,24.792c0.502-3.88,1.255-8.219,2.26-13.013
		c1.003-4.794,1.917-8.674,2.739-11.642l16.3-58.487h16.231l16.71,58.761c1.598,5.434,3.287,13.561,5.068,24.381
		c0.685-6.528,2.329-14.838,4.931-24.929l14.245-58.213h16.573L711.286,299.782z"/>
	<path d="M809.289,272.593c0,8.902-3.219,15.889-9.657,20.956c-6.438,5.068-15.318,7.603-26.641,7.603
		c-11.324,0-20.592-1.758-27.805-5.273V280.4c4.565,2.147,9.417,3.836,14.553,5.068c5.136,1.232,9.918,1.849,14.348,1.849
		c6.482,0,11.266-1.232,14.348-3.698c3.082-2.465,4.623-5.774,4.623-9.93c0-3.743-1.416-6.917-4.246-9.52
		c-2.832-2.603-8.675-5.685-17.533-9.246c-9.132-3.698-15.57-7.921-19.313-12.67c-3.744-4.748-5.616-10.455-5.616-17.122
		c0-8.355,2.967-14.93,8.903-19.724c5.935-4.794,13.902-7.191,23.901-7.191c9.588,0,19.13,2.101,28.627,6.3l-5.205,13.355
		c-8.903-3.743-16.847-5.616-23.833-5.616c-5.297,0-9.314,1.153-12.054,3.458c-2.739,2.306-4.109,5.354-4.109,9.143
		c0,2.603,0.548,4.828,1.644,6.677s2.899,3.596,5.41,5.239c2.51,1.644,7.031,3.813,13.56,6.506
		c7.351,3.059,12.738,5.913,16.163,8.561c3.424,2.648,5.935,5.639,7.534,8.972C808.49,264.147,809.289,268.073,809.289,272.593z"/>
	<path d="M905.1,299.782h-18.97l-31.435-45.337l-9.656,7.876v37.461H828.67V199.656h16.368v47.803
		c4.474-5.479,8.925-10.752,13.354-15.82l27.052-31.983h18.628c-17.487,20.546-30.02,35.179-37.598,43.899L905.1,299.782z"/>
	<path d="M918.318,299.782V199.656h16.368v100.126H918.318z"/>
</g>
<g>
	<path d="M1267.917,300.062V199.936h6.985v93.552h47.734v6.574H1267.917z"/>
	<path d="M1388.109,264.723h-40.681l-13.971,35.339h-7.739l40.27-100.537h4.451l39.448,100.537h-7.876L1388.109,264.723z
		 M1349.963,258.423h35.817l-13.628-36.092c-1.143-2.831-2.512-6.757-4.109-11.78c-1.232,4.383-2.58,8.355-4.041,11.917
		L1349.963,258.423z"/>
	<path d="M1503.85,300.062h-5.753l-21.983-77.252c-1.826-6.345-3.196-11.55-4.109-15.615c-0.73,3.972-1.77,8.539-3.116,13.697
		c-1.347,5.16-8.709,31.549-22.086,79.169h-5.89l-27.531-100.126h7.327l17.533,64.514c0.685,2.603,1.323,5.011,1.917,7.225
		c0.593,2.216,1.13,4.293,1.609,6.232c0.479,1.941,0.913,3.812,1.302,5.616c0.387,1.804,0.741,3.619,1.062,5.444
		c1.096-6.209,3.424-15.637,6.985-28.285l17.121-60.747h7.739l20.066,69.719c2.328,8.036,3.994,14.519,4.999,19.449
		c0.593-3.287,1.358-6.779,2.294-10.478s7.979-29.929,21.128-78.69h7.055L1503.85,300.062z"/>
	<path d="M1592.607,300.062h-6.985V199.936h54.856v6.438h-47.871v42.461h45.2v6.506h-45.2V300.062z"/>
	<path d="M1656.024,300.062V199.936h6.985v100.126H1656.024z"/>
	<path d="M1698.349,256.437v43.625h-6.985V199.936h23.833c12.418,0,21.595,2.294,27.531,6.883
		c5.935,4.588,8.902,11.495,8.902,20.717c0,6.712-1.77,12.374-5.308,16.984c-3.538,4.612-8.914,7.922-16.128,9.931l27.188,45.611
		h-8.354l-25.819-43.625H1698.349z M1698.349,250.41h19.107c8.446,0,14.998-1.884,19.655-5.65s6.985-9.325,6.985-16.676
		c0-7.624-2.283-13.171-6.849-16.642c-4.565-3.469-12.008-5.205-22.326-5.205h-16.573V250.41z"/>
	<path d="M1818.746,300.062l-37.325-92.456h-0.548c0.365,5.662,0.548,11.46,0.548,17.396v75.06h-6.711V199.936h10.82l35.476,88.072
		h0.411l35.476-88.072h10.547v100.126h-7.055V224.18c0-5.296,0.274-10.775,0.822-16.437h-0.548l-37.462,92.318H1818.746z"/>
</g>
<g>
	<path d="M679.234,376.404H658.84l-3.574,8.313c-0.881,2.046-1.321,3.574-1.321,4.584c0,0.803,0.382,1.509,1.146,2.117
		c0.764,0.608,2.415,1.004,4.953,1.185v1.438h-16.587v-1.438c2.201-0.389,3.625-0.894,4.273-1.515
		c1.321-1.243,2.784-3.769,4.39-7.575l18.53-43.354h1.359l18.336,43.819c1.476,3.522,2.816,5.808,4.021,6.856
		c1.205,1.049,2.881,1.639,5.031,1.768v1.438h-20.783v-1.438c2.098-0.103,3.516-0.453,4.254-1.049s1.107-1.32,1.107-2.176
		c0-1.139-0.518-2.938-1.554-5.399L679.234,376.404z M678.147,373.53l-8.935-21.288l-9.168,21.288H678.147z"/>
	<path d="M713.109,346.764v11.692h8.313v2.72h-8.313v23.075c0,2.305,0.331,3.858,0.991,4.661c0.661,0.803,1.508,1.204,2.544,1.204
		c0.854,0,1.683-0.265,2.486-0.796c0.802-0.53,1.424-1.314,1.865-2.351h1.515c-0.907,2.539-2.188,4.448-3.846,5.73
		c-1.658,1.281-3.367,1.923-5.128,1.923c-1.191,0-2.357-0.33-3.496-0.991c-1.14-0.66-1.981-1.605-2.525-2.836
		c-0.544-1.229-0.816-3.127-0.816-5.69v-23.93h-5.633v-1.282c1.424-0.569,2.881-1.534,4.371-2.895
		c1.489-1.359,2.816-2.972,3.981-4.836c0.596-0.984,1.424-2.783,2.486-5.399H713.109z"/>
	<path d="M735.213,346.764v11.692h8.313v2.72h-8.313v23.075c0,2.305,0.331,3.858,0.991,4.661c0.661,0.803,1.508,1.204,2.544,1.204
		c0.854,0,1.683-0.265,2.486-0.796c0.802-0.53,1.424-1.314,1.865-2.351h1.515c-0.907,2.539-2.188,4.448-3.846,5.73
		c-1.658,1.281-3.367,1.923-5.128,1.923c-1.191,0-2.357-0.33-3.496-0.991c-1.14-0.66-1.981-1.605-2.525-2.836
		c-0.544-1.229-0.816-3.127-0.816-5.69v-23.93h-5.633v-1.282c1.424-0.569,2.881-1.534,4.371-2.895
		c1.489-1.359,2.816-2.972,3.981-4.836c0.596-0.984,1.424-2.783,2.486-5.399H735.213z"/>
	<path d="M764.387,357.408c5.386,0,9.712,2.046,12.975,6.138c2.771,3.496,4.157,7.511,4.157,12.043c0,3.186-0.764,6.409-2.292,9.673
		c-1.528,3.263-3.632,5.724-6.312,7.381c-2.68,1.657-5.666,2.486-8.954,2.486c-5.361,0-9.622-2.137-12.781-6.41
		c-2.667-3.6-4.001-7.64-4.001-12.12c0-3.263,0.809-6.507,2.428-9.731c1.618-3.224,3.749-5.606,6.39-7.147
		C758.638,358.179,761.435,357.408,764.387,357.408z M763.183,359.933c-1.373,0-2.752,0.408-4.137,1.224
		c-1.386,0.815-2.506,2.247-3.36,4.292c-0.854,2.047-1.282,4.676-1.282,7.887c0,5.18,1.03,9.647,3.088,13.402
		c2.059,3.755,4.771,5.632,8.139,5.632c2.512,0,4.584-1.035,6.215-3.107c1.632-2.071,2.447-5.633,2.447-10.683
		c0-6.318-1.359-11.291-4.079-14.917C768.375,361.176,766.032,359.933,763.183,359.933z"/>
	<path d="M797.173,357.408v8.003c2.978-5.335,6.034-8.003,9.168-8.003c1.424,0,2.603,0.435,3.535,1.302
		c0.932,0.868,1.398,1.871,1.398,3.011c0,1.01-0.337,1.864-1.01,2.563c-0.674,0.699-1.477,1.049-2.409,1.049
		c-0.907,0-1.923-0.446-3.049-1.34c-1.127-0.894-1.962-1.341-2.506-1.341c-0.466,0-0.971,0.26-1.515,0.777
		c-1.165,1.062-2.37,2.811-3.613,5.244v17.054c0,1.969,0.246,3.458,0.738,4.468c0.336,0.699,0.932,1.282,1.787,1.748
		c0.854,0.466,2.084,0.699,3.69,0.699v1.398H785.17v-1.398c1.812,0,3.159-0.285,4.04-0.854c0.647-0.414,1.101-1.074,1.359-1.981
		c0.129-0.44,0.194-1.696,0.194-3.769v-13.79c0-4.144-0.084-6.61-0.252-7.4c-0.168-0.79-0.479-1.366-0.932-1.729
		c-0.454-0.362-1.017-0.544-1.69-0.544c-0.803,0-1.709,0.194-2.719,0.582l-0.389-1.398l10.761-4.351H797.173z"/>
	<path d="M823.628,364.944c4.169-5.023,8.145-7.536,11.926-7.536c1.942,0,3.613,0.485,5.011,1.457
		c1.398,0.971,2.512,2.57,3.341,4.798c0.569,1.554,0.855,3.937,0.855,7.147V386c0,2.253,0.181,3.781,0.544,4.584
		c0.285,0.647,0.744,1.152,1.379,1.515c0.634,0.363,1.806,0.544,3.516,0.544v1.398h-17.598v-1.398h0.738
		c1.657,0,2.816-0.253,3.477-0.758c0.66-0.505,1.12-1.249,1.379-2.233c0.104-0.389,0.156-1.605,0.156-3.651v-14.568
		c0-3.236-0.421-5.587-1.263-7.05c-0.842-1.463-2.26-2.195-4.254-2.195c-3.082,0-6.151,1.684-9.207,5.05V386
		c0,2.408,0.142,3.897,0.427,4.467c0.362,0.752,0.861,1.302,1.496,1.651c0.634,0.35,1.923,0.524,3.865,0.524v1.398h-17.598v-1.398
		h0.777c1.812,0,3.036-0.46,3.671-1.379c0.634-0.919,0.952-2.674,0.952-5.264v-13.208c0-4.273-0.097-6.876-0.292-7.809
		s-0.492-1.566-0.894-1.903c-0.402-0.336-0.939-0.505-1.612-0.505c-0.725,0-1.592,0.194-2.603,0.582l-0.583-1.398l10.722-4.351h1.67
		V364.944z"/>
	<path d="M859.018,371.859c-0.026,5.283,1.256,9.427,3.846,12.431c2.589,3.005,5.633,4.507,9.129,4.507
		c2.331,0,4.357-0.642,6.08-1.923c1.722-1.282,3.166-3.478,4.332-6.585l1.204,0.777c-0.544,3.548-2.124,6.778-4.739,9.692
		c-2.616,2.913-5.892,4.37-9.828,4.37c-4.273,0-7.932-1.664-10.974-4.992c-3.043-3.327-4.565-7.802-4.565-13.422
		c0-6.085,1.56-10.831,4.681-14.237c3.121-3.405,7.038-5.108,11.751-5.108c3.988,0,7.264,1.315,9.828,3.943
		c2.564,2.629,3.846,6.145,3.846,10.547H859.018z M859.018,369.606h16.471c-0.13-2.278-0.402-3.885-0.816-4.817
		c-0.648-1.45-1.612-2.589-2.894-3.418c-1.282-0.829-2.622-1.243-4.021-1.243c-2.15,0-4.073,0.835-5.769,2.505
		C860.293,364.303,859.303,366.628,859.018,369.606z"/>
	<path d="M886.328,358.457h16.587v1.438h-0.816c-1.165,0-2.039,0.253-2.622,0.758c-0.583,0.505-0.874,1.133-0.874,1.884
		c0,1.01,0.427,2.408,1.282,4.195l8.663,17.947l7.964-19.656c0.44-1.062,0.66-2.11,0.66-3.146c0-0.467-0.091-0.816-0.272-1.049
		c-0.208-0.285-0.531-0.512-0.971-0.68c-0.44-0.169-1.217-0.253-2.331-0.253v-1.438h11.576v1.438
		c-0.958,0.104-1.696,0.311-2.214,0.622c-0.518,0.311-1.087,0.893-1.709,1.748c-0.233,0.362-0.674,1.359-1.321,2.991l-14.49,35.506
		c-1.398,3.443-3.231,6.047-5.497,7.808c-2.267,1.762-4.448,2.642-6.546,2.642c-1.528,0-2.784-0.44-3.768-1.32
		c-0.984-0.881-1.476-1.891-1.476-3.03c0-1.088,0.355-1.962,1.068-2.622c0.712-0.66,1.69-0.99,2.933-0.99
		c0.855,0,2.021,0.284,3.497,0.854c1.035,0.389,1.683,0.583,1.942,0.583c0.777,0,1.625-0.402,2.544-1.205
		c0.919-0.803,1.845-2.356,2.777-4.661l2.525-6.177l-12.78-26.844c-0.389-0.802-1.01-1.799-1.865-2.991
		c-0.647-0.905-1.179-1.515-1.593-1.825c-0.596-0.414-1.554-0.777-2.875-1.088V358.457z"/>
	<path d="M951.124,357.408v12.12h-1.282c-0.984-3.807-2.247-6.396-3.788-7.77c-1.541-1.372-3.503-2.059-5.885-2.059
		c-1.813,0-3.276,0.479-4.39,1.438c-1.114,0.958-1.67,2.02-1.67,3.186c0,1.45,0.414,2.693,1.243,3.729
		c0.802,1.062,2.434,2.188,4.895,3.379l5.672,2.759c5.257,2.563,7.886,5.943,7.886,10.139c0,3.238-1.224,5.847-3.671,7.828
		c-2.448,1.98-5.186,2.972-8.216,2.972c-2.175,0-4.662-0.389-7.458-1.166c-0.855-0.258-1.554-0.388-2.098-0.388
		c-0.596,0-1.062,0.337-1.398,1.01h-1.282v-12.703h1.282c0.725,3.626,2.11,6.358,4.156,8.197s4.337,2.758,6.876,2.758
		c1.787,0,3.244-0.524,4.37-1.573c1.127-1.049,1.69-2.312,1.69-3.788c0-1.787-0.628-3.288-1.884-4.506
		c-1.257-1.217-3.762-2.758-7.517-4.623c-3.755-1.864-6.215-3.548-7.381-5.05c-1.166-1.477-1.748-3.341-1.748-5.594
		c0-2.927,1.003-5.374,3.011-7.343c2.006-1.968,4.603-2.952,7.789-2.952c1.398,0,3.094,0.298,5.089,0.894
		c1.321,0.389,2.201,0.583,2.642,0.583c0.414,0,0.738-0.091,0.971-0.272c0.233-0.181,0.505-0.582,0.816-1.204H951.124z"/>
</g>
<g>
	<path d="M1294.742,336.42l1.204,17.908h-1.204c-1.606-5.36-3.898-9.219-6.876-11.576c-2.979-2.356-6.553-3.535-10.722-3.535
		c-3.496,0-6.656,0.888-9.479,2.661c-2.823,1.774-5.044,4.604-6.662,8.488c-1.619,3.885-2.429,8.715-2.429,14.49
		c0,4.765,0.764,8.896,2.292,12.392s3.827,6.177,6.896,8.041c3.069,1.865,6.571,2.798,10.508,2.798c3.419,0,6.436-0.731,9.052-2.195
		c2.615-1.463,5.49-4.37,8.624-8.721l1.204,0.776c-2.642,4.688-5.724,8.119-9.245,10.295c-3.522,2.175-7.705,3.263-12.548,3.263
		c-8.728,0-15.487-3.237-20.278-9.712c-3.573-4.816-5.36-10.488-5.36-17.015c0-5.257,1.178-10.087,3.535-14.49
		c2.355-4.402,5.6-7.813,9.73-10.235s8.644-3.633,13.538-3.633c3.808,0,7.562,0.933,11.266,2.797
		c1.088,0.57,1.865,0.854,2.331,0.854c0.699,0,1.308-0.245,1.826-0.737c0.673-0.699,1.151-1.671,1.438-2.914H1294.742z"/>
	<path d="M1319.798,353.668c5.387,0,9.712,2.046,12.975,6.138c2.771,3.496,4.157,7.511,4.157,12.043
		c0,3.186-0.765,6.409-2.292,9.673c-1.528,3.263-3.633,5.724-6.312,7.381c-2.681,1.657-5.666,2.486-8.955,2.486
		c-5.36,0-9.621-2.137-12.78-6.41c-2.668-3.6-4.001-7.64-4.001-12.12c0-3.263,0.809-6.507,2.428-9.731
		c1.618-3.224,3.749-5.606,6.391-7.147C1314.049,354.44,1316.846,353.668,1319.798,353.668z M1318.594,356.194
		c-1.373,0-2.752,0.408-4.138,1.224s-2.505,2.247-3.36,4.292c-0.854,2.047-1.281,4.676-1.281,7.887c0,5.18,1.029,9.647,3.088,13.402
		s4.771,5.632,8.139,5.632c2.512,0,4.584-1.035,6.216-3.107c1.631-2.071,2.447-5.633,2.447-10.683c0-6.318-1.36-11.291-4.079-14.917
		C1323.786,357.437,1321.442,356.194,1318.594,356.194z"/>
	<path d="M1373.368,354.717v21.561c0,4.117,0.097,6.637,0.291,7.556s0.505,1.561,0.933,1.923c0.427,0.363,0.926,0.544,1.495,0.544
		c0.803,0,1.709-0.22,2.72-0.661l0.544,1.36l-10.645,4.39h-1.748v-7.536c-3.056,3.315-5.387,5.399-6.992,6.254
		c-1.606,0.854-3.302,1.282-5.089,1.282c-1.995,0-3.724-0.577-5.187-1.729c-1.463-1.152-2.479-2.636-3.05-4.448
		c-0.569-1.812-0.854-4.376-0.854-7.691v-15.889c0-1.684-0.182-2.849-0.544-3.496s-0.899-1.146-1.611-1.496
		c-0.713-0.35-2.001-0.511-3.865-0.485v-1.438h12.47v23.813c0,3.315,0.576,5.49,1.729,6.526s2.544,1.554,4.176,1.554
		c1.113,0,2.376-0.35,3.788-1.049c1.411-0.699,3.088-2.033,5.03-4.001v-20.162c0-2.02-0.369-3.386-1.107-4.098
		c-0.737-0.713-2.272-1.095-4.604-1.146v-1.438H1373.368z"/>
	<path d="M1392.325,361.205c4.169-5.023,8.145-7.536,11.926-7.536c1.942,0,3.613,0.485,5.012,1.457
		c1.398,0.971,2.512,2.57,3.341,4.798c0.569,1.554,0.854,3.937,0.854,7.147v15.189c0,2.253,0.181,3.781,0.544,4.584
		c0.284,0.647,0.744,1.152,1.379,1.515c0.634,0.363,1.807,0.544,3.516,0.544v1.398h-17.598v-1.398h0.738
		c1.657,0,2.816-0.253,3.477-0.758s1.12-1.249,1.379-2.233c0.104-0.389,0.155-1.605,0.155-3.651v-14.568
		c0-3.236-0.421-5.587-1.263-7.05s-2.26-2.195-4.253-2.195c-3.083,0-6.151,1.684-9.207,5.05v18.764c0,2.408,0.142,3.897,0.428,4.467
		c0.362,0.752,0.86,1.302,1.495,1.651s1.923,0.524,3.865,0.524v1.398h-17.598v-1.398h0.777c1.812,0,3.036-0.46,3.671-1.379
		c0.634-0.919,0.951-2.674,0.951-5.264v-13.208c0-4.273-0.097-6.876-0.291-7.809s-0.492-1.566-0.894-1.903
		c-0.401-0.336-0.938-0.505-1.612-0.505c-0.726,0-1.593,0.194-2.603,0.582l-0.583-1.398l10.722-4.351h1.671V361.205z"/>
	<path d="M1444.729,353.668v12.12h-1.282c-0.984-3.807-2.247-6.396-3.787-7.77c-1.541-1.372-3.503-2.059-5.886-2.059
		c-1.812,0-3.276,0.479-4.39,1.438s-1.67,2.02-1.67,3.186c0,1.45,0.414,2.693,1.243,3.729c0.803,1.062,2.434,2.188,4.895,3.379
		l5.672,2.759c5.257,2.563,7.886,5.943,7.886,10.139c0,3.238-1.224,5.847-3.671,7.828c-2.447,1.98-5.187,2.972-8.216,2.972
		c-2.176,0-4.662-0.389-7.459-1.166c-0.854-0.258-1.554-0.388-2.098-0.388c-0.597,0-1.062,0.337-1.398,1.01h-1.282v-12.703h1.282
		c0.725,3.626,2.11,6.358,4.156,8.197s4.338,2.758,6.876,2.758c1.787,0,3.244-0.524,4.37-1.573c1.127-1.049,1.69-2.312,1.69-3.788
		c0-1.787-0.629-3.288-1.885-4.506c-1.256-1.217-3.762-2.758-7.517-4.623c-3.755-1.864-6.216-3.548-7.381-5.05
		c-1.165-1.477-1.748-3.341-1.748-5.594c0-2.927,1.003-5.374,3.011-7.343c2.007-1.968,4.604-2.952,7.789-2.952
		c1.398,0,3.094,0.298,5.089,0.894c1.32,0.389,2.2,0.583,2.642,0.583c0.414,0,0.737-0.091,0.971-0.272
		c0.233-0.181,0.505-0.582,0.815-1.204H1444.729z"/>
	<path d="M1458.676,368.12c-0.026,5.283,1.256,9.427,3.846,12.431c2.59,3.005,5.633,4.507,9.129,4.507
		c2.331,0,4.357-0.642,6.08-1.923c1.722-1.282,3.166-3.478,4.331-6.585l1.204,0.777c-0.544,3.548-2.124,6.778-4.739,9.692
		c-2.616,2.913-5.892,4.37-9.828,4.37c-4.273,0-7.932-1.664-10.975-4.992c-3.043-3.327-4.564-7.802-4.564-13.422
		c0-6.085,1.561-10.831,4.682-14.237c3.12-3.405,7.037-5.108,11.751-5.108c3.987,0,7.265,1.315,9.828,3.943
		c2.563,2.629,3.846,6.145,3.846,10.547H1458.676z M1458.676,365.867h16.471c-0.13-2.278-0.401-3.885-0.815-4.817
		c-0.647-1.45-1.612-2.589-2.895-3.418c-1.281-0.829-2.622-1.243-4.021-1.243c-2.149,0-4.072,0.835-5.769,2.505
		C1459.951,360.564,1458.96,362.889,1458.676,365.867z"/>
	<path d="M1500.242,335.061v47.199c0,2.228,0.162,3.703,0.486,4.429c0.323,0.725,0.821,1.275,1.495,1.65
		c0.673,0.376,1.929,0.563,3.769,0.563v1.398h-17.442v-1.398c1.632,0,2.744-0.168,3.341-0.505c0.596-0.337,1.062-0.894,1.398-1.671
		c0.336-0.776,0.505-2.266,0.505-4.467v-32.321c0-4.014-0.091-6.48-0.271-7.4c-0.182-0.919-0.474-1.547-0.875-1.884
		c-0.401-0.336-0.912-0.505-1.534-0.505c-0.674,0-1.528,0.208-2.563,0.621l-0.66-1.359l10.604-4.351H1500.242z"/>
	<path d="M1527.513,353.668c5.387,0,9.712,2.046,12.975,6.138c2.771,3.496,4.157,7.511,4.157,12.043
		c0,3.186-0.765,6.409-2.292,9.673c-1.528,3.263-3.633,5.724-6.312,7.381c-2.681,1.657-5.666,2.486-8.955,2.486
		c-5.36,0-9.621-2.137-12.78-6.41c-2.668-3.6-4.001-7.64-4.001-12.12c0-3.263,0.809-6.507,2.428-9.731
		c1.618-3.224,3.749-5.606,6.391-7.147C1521.764,354.44,1524.561,353.668,1527.513,353.668z M1526.309,356.194
		c-1.373,0-2.752,0.408-4.138,1.224s-2.505,2.247-3.36,4.292c-0.854,2.047-1.281,4.676-1.281,7.887c0,5.18,1.029,9.647,3.088,13.402
		s4.771,5.632,8.139,5.632c2.512,0,4.584-1.035,6.216-3.107c1.631-2.071,2.447-5.633,2.447-10.683c0-6.318-1.36-11.291-4.079-14.917
		C1531.501,357.437,1529.157,356.194,1526.309,356.194z"/>
	<path d="M1560.3,353.668v8.003c2.978-5.335,6.034-8.003,9.168-8.003c1.424,0,2.603,0.435,3.535,1.302
		c0.932,0.868,1.398,1.871,1.398,3.011c0,1.01-0.337,1.864-1.011,2.563s-1.476,1.049-2.408,1.049c-0.907,0-1.923-0.446-3.05-1.34
		c-1.126-0.894-1.962-1.341-2.505-1.341c-0.467,0-0.972,0.26-1.516,0.777c-1.165,1.062-2.369,2.811-3.612,5.244v17.054
		c0,1.969,0.245,3.458,0.738,4.468c0.336,0.699,0.932,1.282,1.786,1.748c0.855,0.466,2.085,0.699,3.69,0.699v1.398h-18.219v-1.398
		c1.812,0,3.159-0.285,4.04-0.854c0.647-0.414,1.101-1.074,1.359-1.981c0.13-0.44,0.194-1.696,0.194-3.769v-13.79
		c0-4.144-0.084-6.61-0.252-7.4c-0.169-0.79-0.479-1.366-0.933-1.729s-1.017-0.544-1.69-0.544c-0.803,0-1.709,0.194-2.719,0.582
		l-0.389-1.398l10.761-4.351H1560.3z"/>
	<path d="M1599.38,353.668v12.12h-1.282c-0.984-3.807-2.247-6.396-3.787-7.77c-1.541-1.372-3.503-2.059-5.886-2.059
		c-1.812,0-3.276,0.479-4.39,1.438s-1.67,2.02-1.67,3.186c0,1.45,0.414,2.693,1.243,3.729c0.803,1.062,2.434,2.188,4.895,3.379
		l5.672,2.759c5.257,2.563,7.886,5.943,7.886,10.139c0,3.238-1.224,5.847-3.671,7.828c-2.447,1.98-5.187,2.972-8.216,2.972
		c-2.176,0-4.662-0.389-7.459-1.166c-0.854-0.258-1.554-0.388-2.098-0.388c-0.597,0-1.062,0.337-1.398,1.01h-1.282v-12.703h1.282
		c0.725,3.626,2.11,6.358,4.156,8.197s4.338,2.758,6.876,2.758c1.787,0,3.244-0.524,4.37-1.573c1.127-1.049,1.69-2.312,1.69-3.788
		c0-1.787-0.629-3.288-1.885-4.506c-1.256-1.217-3.762-2.758-7.517-4.623c-3.755-1.864-6.216-3.548-7.381-5.05
		c-1.165-1.477-1.748-3.341-1.748-5.594c0-2.927,1.003-5.374,3.011-7.343c2.007-1.968,4.604-2.952,7.789-2.952
		c1.398,0,3.094,0.298,5.089,0.894c1.32,0.389,2.2,0.583,2.642,0.583c0.414,0,0.737-0.091,0.971-0.272
		c0.233-0.181,0.505-0.582,0.815-1.204H1599.38z"/>
</g>
<line fill="none" stroke="#000000" stroke-width="4" stroke-miterlimit="10" x1="1642.228" y1="372.871" x2="1868.228" y2="372.871"/>
<line fill="none" stroke="#000000" stroke-width="4" stroke-miterlimit="10" x1="147.228" y1="376.871" x2="609.228" y2="376.871"/>
<g>
	<defs>
		<rect id="SVGID_1_" width="2000" height="525.806"/>
	</defs>
	<clipPath id="SVGID_2_">
		<use xlink:href="#SVGID_1_"  overflow="visible"/>
	</clipPath>
	<path clip-path="url(#SVGID_2_)" d="M1050.785,271.472c0,0,2.068,8.585-14.729,20.472c-16.797,11.889-33.967,26.564-38.59,43.881
		c-4.622,17.317,17.566,53.459,17.566,53.459s-6.339-30.894,2.246-44.928c9.352-15.287,27.751-29.211,33.506-39.203
		C1057.631,293.265,1050.785,271.472,1050.785,271.472"/>
	<path clip-path="url(#SVGID_2_)" d="M1056.714,312.673c0,0,5.612,21.188,4.456,31.683c-1.157,10.496-12.405,18.853-16.368,32.721
		c-3.962,13.869,5.454,43.265,5.454,43.265s-28.397-24.568-26.527-42.985c1.871-18.416,17.612-26.701,23.887-38.669
		C1053.889,326.719,1056.714,312.673,1056.714,312.673"/>
	<path clip-path="url(#SVGID_2_)" d="M1075.353,348.539c0,0-13.864,11.207-14.176,24.415s4.742,24.036,5.224,37.904
		c0.481,13.869-2.055,25.978-2.055,25.978s17.987-11.008,21.376-22.896c3.388-11.888-3.992-24.07-8.635-39.919
		C1072.443,358.17,1075.353,348.539,1075.353,348.539"/>
	<path clip-path="url(#SVGID_2_)" d="M986.268,329.698c0,0-2.162-36.653,10.132-47.88c12.294-11.226,31.446-29.421,32.766-42.778
		c1.321-13.356-5.548-22.717-5.548-22.717s-9.641,14.941-24.83,22.717c-15.189,7.777-35.415,20.744-35.415,39.641
		C963.373,297.578,986.268,329.698,986.268,329.698"/>
	<path clip-path="url(#SVGID_2_)" d="M1037.928,249.271c0,0-4.8,14.716-10.742,19.339c-5.944,4.623-19.808,15.618-23.601,23.809
		c-4.643,10.028-3,18.329-3,18.329s8.735-14.473,16.808-18.251c5.234-2.45,20.055-7.91,22.004-17.01
		C1041.989,263.376,1038.25,248.68,1037.928,249.271"/>
	<path clip-path="url(#SVGID_2_)" d="M1096.928,364.041c0,0-10.963,4.932-8.431,16.178c1.456,6.47,5.017,8.504,8.431,12.588
		c4.701,5.626,0.459,18.053,0.459,18.053s11.113-13.766,9.961-20.954c-1.133-7.058-6.752-11.628-8.336-15.003
		C1096.778,370.139,1096.928,364.041,1096.928,364.041"/>
	<path clip-path="url(#SVGID_2_)" d="M1111.604,449.457c0,0-19.153-7.64-19.838-18.198c-0.592-9.139,13.457-13.796,17.675-21.722
		c4.218-7.925,5.704-18.312,5.704-18.312s6.829,10.094,6.194,19.485c-0.637,9.394-7.388,13.797-9.441,19.667
		C1109.843,436.248,1111.604,449.457,1111.604,449.457"/>
	<path clip-path="url(#SVGID_2_)" d="M1115.145,360.812c0,0-4.386,12.328,0,20.84c4.385,8.513,16.957,18.199,15.808,26.711
		c-1.15,8.513-9.456,26.124-9.456,26.124s13.369-7.923,19.167-14.146c3.228-3.465,8.71-16.851,2.545-26.243
		c-6.164-9.394-10.021-9.51-16.213-15.968C1120.804,371.672,1115.145,360.812,1115.145,360.812"/>
	<path clip-path="url(#SVGID_2_)" d="M1161.611,270.151c0,0-2.068,8.585,14.729,20.473s33.967,26.563,38.59,43.881
		c4.622,17.316-18.057,59.592-18.057,59.592s5.828-33.34-2.758-47.374c-9.352-15.287-22.209-24.02-27.964-34.012
		C1159.306,300.824,1161.611,270.151,1161.611,270.151"/>
	<path clip-path="url(#SVGID_2_)" d="M1155.683,311.352c0,0-9.56,21.242-8.403,31.738c1.157,10.496,16.353,18.797,20.315,32.665
		c3.962,13.869-5.064,45.848-5.064,45.848s28.008-27.15,26.138-45.567c-1.871-18.416-17.611-26.702-23.887-38.669
		C1158.508,325.399,1155.683,311.352,1155.683,311.352"/>
	<path clip-path="url(#SVGID_2_)" d="M1226.129,328.377c0,0,2.162-36.653-10.132-47.881c-12.294-11.226-31.446-29.42-32.767-42.777
		c-1.32-13.356,5.549-22.717,5.549-22.717s8.125,20.916,23.314,28.692c15.189,7.777,27.928,19.189,27.928,38.086
		C1240.021,300.677,1226.129,328.377,1226.129,328.377"/>
	<path clip-path="url(#SVGID_2_)" d="M1174.469,247.951c0,0,4.8,14.716,10.742,19.339c5.944,4.623,19.808,15.618,23.601,23.81
		c4.643,10.027,3.001,18.328,3.001,18.328s-8.736-14.473-16.809-18.251c-5.234-2.449-20.055-7.909-22.004-17.01
		C1170.408,262.056,1174.146,247.359,1174.469,247.951"/>
	<path clip-path="url(#SVGID_2_)" d="M1137.409,350.134c0,0-5.227,18.742,4.063,27.113c10.566,9.521,14.233,20.402,14.233,20.402
		s4.939-11.375-0.073-21.281c-2.273-4.492-7.506-7.315-11.154-12.328C1140.081,358,1137.409,350.134,1137.409,350.134"/>
	<path clip-path="url(#SVGID_2_)" d="M1125.105,259.361c0.671-4.122,0.653-9.581,1.046-13.3c0,0,1.313-6.632,2.587-7.761
		c1.273-1.128,3-1.898,3.907-2.917c0.908-1.018,1.706-4.311,2.88-5.338c1.175-1.027,4.771,0.073,7.192,0
		c2.421-0.073,5.652-1.275,7.338-3.412c2.054-2.604,7.191-6.128,7.191-6.128s-6.751-1.706-9.687-2.027
		c-2.935-0.321-6.458,0.074-8.512,0.72c-2.055,0.647-5.431,3.889-6.458,4.837c-1.027,0.947-4.771,7.925-5.614,10.416
		c-0.844,2.492-1.504,7.115-1.871,10.124C1124.738,247.583,1125.105,259.361,1125.105,259.361"/>
	<path clip-path="url(#SVGID_2_)" d="M1121.51,222.487c0,0,4.574-0.367,6.85-1.321c2.274-0.954,5.791-4.422,6.231-5.596
		c0.44-1.175,0.617-5.411,0.617-5.411s-4.524,6.164-10.983,8.586C1121.585,219.734,1121.51,222.487,1121.51,222.487"/>
	<path clip-path="url(#SVGID_2_)" d="M1117.181,195.483c0,0-3.742-0.881-5.283-2.348c-1.541-1.468-4.33-4.697-5.063-6.898
		c-0.734-2.202-0.44-4.036,0.66-4.917c1.101-0.88,2.055-0.88,2.055-0.88s-0.367,2.421,1.027,4.77
		c1.395,2.348,2.349,3.595,3.303,4.99C1114.832,191.594,1117.181,195.483,1117.181,195.483"/>
	<path clip-path="url(#SVGID_2_)" d="M1091.277,195.042c0,0,3.011-0.208,5.209-1.761c2.603-1.838,3.155-2.422,4.477-5.32
		c1.321-2.899,1.762-5.834,0-6.935c-1.761-1.101-3.008-0.587-3.008-0.587s0.88,1.981-0.147,4.109
		c-1.026,2.128-2.422,4.403-3.449,5.798C1093.332,191.741,1091.277,195.042,1091.277,195.042"/>
	<path clip-path="url(#SVGID_2_)" d="M1174.748,219.588c0,0-0.55-3.265-4.293-9.43c-2.01-3.31-6.494-8.072-9.905-11.484
		c-3.413-3.412-6.825-6.934-10.348-12.328c-3.521-5.393-4.183-10.787-4.402-13.099c-0.221-2.311,0.659-4.402,0.659-4.402
		s1.541,2.421,3.964,5.283c2.422,2.862,4.072,1.568,5.504,5.394c1.431,3.825,3.412,9.796,5.393,12.438
		c1.981,2.642,5.614,5.173,8.146,10.347c2.53,5.173,4.985,6.487,5.427,10.45C1175.332,216.72,1174.748,219.588,1174.748,219.588"/>
	<path clip-path="url(#SVGID_2_)" d="M1160.41,173.578c0,0-2.062-4.733-3.273-6.164c-1.211-1.431-3.853-3.302-3.853-3.302
		s5.173-1.541,8.146-4.513c2.972-2.972,7.815-7.705,9.356-9.026s2.862-2.862,5.283-2.202c2.422,0.661,7.045,4.073,7.045,4.073
		s-3.743-0.11-6.715,0.11c-2.972,0.22-6.714,3.412-8.695,5.614c-1.981,2.201-3.963,4.843-4.623,7.265
		c-0.661,2.421,0.092,2.983-0.44,5.008C1162.09,172.532,1160.41,173.578,1160.41,173.578"/>
	<path clip-path="url(#SVGID_2_)" d="M1128.408,312.71c0,0,9.576-1.981,11.777-2.862c2.201-0.88,4.953-3.412,5.613-6.274
		c0.661-2.861,0.551-12.548,0.551-15.52s0.44-11.998,1.541-14.86c1.102-2.861,6.714-10.824,8.696-13.833
		c1.981-3.008,5.944-8.072,8.035-11.814c2.091-3.742,1.431-11.007,1.431-11.007s-0.538,6.247-1.706,8.806
		c-1.155,2.531-6.183,9.319-8.53,11.631c-2.222,2.186-4.635,4.504-6.422,7.154c-1.71,2.536-3.815,5.871-3.815,5.871
		s-1.871-0.991-3.412-5.504c-1.012-2.964-2.642-7.815-2.642-7.815s-0.222,1.655,0.221,5.173c0.333,2.66,2.293,7.341,3.062,10.093
		c0.771,2.752,1.229,1.795,1.229,5.538c0,3.742,0,6.384-0.22,10.678c-0.221,4.293-0.714,7.925-2.724,9.796
		c-2.01,1.872-3.771,3.082-3.771,3.082s3.963-0.881,4.843-1.321c0.881-0.44,2.202-1.21,2.202-1.21s0.33,2.751-0.771,4.623
		c-1.101,1.871-1.98,3.632-4.513,5.062C1137.157,309.287,1128.408,312.71,1128.408,312.71"/>
	<path clip-path="url(#SVGID_2_)" d="M1185.279,202.601l4.695-6.091c0,0,3.523-4.403,4.036-6.971
		c0.514-2.568-1.027-8.072-1.027-10.714c0-2.641-1.026-8.145-1.026-8.145s-1.248,3.522-1.248,6.531c0,3.009,0.146,6.311-0.147,9.429
		c-0.293,3.119-1.834,6.788-2.715,8.77C1186.967,197.391,1185.279,202.601,1185.279,202.601"/>
	<path clip-path="url(#SVGID_2_)" d="M1170.235,179.412c2.972,2.752,7.265,4.623,9.136,6.054c1.871,1.431,5.063,5.394,5.063,5.394
		s1.321-3.523,0-5.174c-1.321-1.651-6.788-4.073-8.622-5.944c-1.835-1.871-4.806-3.082-5.797-4.513
		c-0.991-1.431-2.532-4.549-2.532-4.549S1167.264,176.66,1170.235,179.412"/>
	<path clip-path="url(#SVGID_2_)" d="M1118.648,321.039c0,0-6.164-2.201-8.072-4.108c-1.908-1.908-4.55-4.258-4.55-6.751
		c0-2.495-0.091-6.702,1.027-9.101c1.027-2.201,3.082-3.229,6.312-4.402c3.228-1.175,3.962-1.027,5.136-2.055
		s1.321-1.908,2.495-3.67c1.174-1.761,4.697-3.082,5.724-4.989c1.027-1.907,1.688-7.191,1.688-7.191s-1.046,1.156-2.367,2.624
		c-1.321,1.467-1.669,1.926-4.311,3.393c-2.643,1.469-5.138,2.202-7.926,2.202c-2.789,0-15.264-0.439-17.317-0.294
		c-2.056,0.147-8.896-0.111-11.097-1.579s-4.313-6.346-4.313-6.346s-0.6,3.055,0.427,5.844c1.027,2.788,4.416,3.109,5.443,5.897
		c1.027,2.789,0.439,2.789,2.201,3.963s3.155,0.997,5.191,1.778c2.546,0.979,3.443,1.187,4.936,2.478
		c1.403,1.215,2.754,2.477,2.936,6.164c0.223,4.55,0.873,5.797-0.811,7.814c-1.685,2.019-3.005,2.899-4.768,4.514
		c-1.761,1.614-6.31,3.815-6.31,3.815s7.663-2.257,11.282-2.22c2.642,0.028,2.778,0.083,5.595,0.165
		C1109.733,319.059,1118.648,321.039,1118.648,321.039"/>
	<path clip-path="url(#SVGID_2_)" d="M1085.59,222.487c0,0-1.762-2.568-3.632-4.66c-1.872-2.091-4.733-3.082-6.165-3.632
		c-1.431-0.55-4.183-2.715-4.183-2.715s0.514,4.109,3.375,5.503c2.862,1.396,3.157,2.348,5.087,3.525
		C1081.828,221.579,1085.59,222.487,1085.59,222.487"/>
	<path clip-path="url(#SVGID_2_)" d="M1083.058,259.985c0,0,1.432-10.787-0.109-17.281c-1.541-6.495-3.743-12.879-7.266-17.062
		c-3.521-4.182-5.613-6.52-9.686-7.278c-4.073-0.757-7.595,0.234-9.688,1.114c-2.091,0.881-4.732,3.009-4.732,3.009
		s3.223,0.835,5.204,1.935c1.981,1.101,3.821,4.523,7.124,4.963s7.154-1.321,9.025,0.44c1.872,1.761,2.569,4.917,2.569,4.917
		s3.682,3.906,4.476,6.604C1082.178,248.831,1083.058,259.985,1083.058,259.985"/>
	<path clip-path="url(#SVGID_2_)" d="M1034.516,218.095c0,0,1.981-7.203,4.403-10.725c2.422-3.522,11.778-11.117,16.511-17.391
		c4.733-6.274,5.173-7.815,6.055-11.998c0.88-4.183-0.552-9.797-0.552-9.797s-5.062,6.274-7.153,8.806
		c-2.093,2.532-0.991,8.035-5.174,11.998s-7.265,8.586-9.906,12.989C1036.057,206.379,1034.516,218.095,1034.516,218.095"/>
	<path clip-path="url(#SVGID_2_)" d="M1024.609,154.095c0,0,2.709-2.305,5.322-2.452c3.374-0.19,5.245,0.691,7.336,2.892
		c2.092,2.202,4.852,6.682,6.495,10.127c1.419,2.976,2.972,9.136,2.972,9.136s0.99-3.192,3.082-5.614
		c2.091-2.421,5.173-3.412,5.173-3.412s-6.437-5.295-9.821-7.955c-3.655-2.871-7.13-6.795-10.652-7.565
		c-3.787-0.829-6.164-0.44-7.815,1.211C1025.05,152.114,1024.609,154.095,1024.609,154.095"/>
	<path clip-path="url(#SVGID_2_)" d="M1022.228,195.593c0,0-6.459-2.642-7.229-6.935c-0.771-4.292,0.237-17.721,0.237-17.721
		s1.989,11.447,3.1,14.97c1.112,3.522,3.893,5.173,3.893,5.173V195.593z"/>
	<path clip-path="url(#SVGID_2_)" d="M1024.609,190.089c0,0,6.384-7.045,8.035-8.255c1.65-1.211,7.595-4.734,8.586-6.165
		c0.991-1.43,0.991-2.971,0.991-2.971s-4.623,1.1-7.045,3.302c-2.423,2.201-5.056,4.57-6.825,6.384
		C1026.15,184.64,1024.609,190.089,1024.609,190.089"/>
	<path clip-path="url(#SVGID_2_)" d="M1042.478,238.264c0,0-0.88,3.669,0,6.604c0.882,2.936,6.751,12.108,8.366,14.493
		c1.614,2.385,6.897,10.09,8.365,15.264c1.468,5.173,2.789,12.07,2.642,18.088c-0.146,6.018-0.33,11.778,0.845,13.833
		c1.174,2.054,3.559,4.366,6.054,4.953s13.208,1.211,13.208,1.211s-8.512-1.211-10.86-2.092c-2.348-0.881-5.009-2.326-6.311-5.063
		c-1.275-2.68-1.027-6.384-1.027-6.384s1.761,1.467,4.843,2.642c3.082,1.174,9.833,1.174,9.833,1.174s-5.137-1.32-7.19-2.201
		c-2.056-0.881-6.293-2.973-6.898-4.55s-1.111-12.543-0.378-16.064c0.734-3.523,3.021-10.793,5.074-15.93
		c2.055-5.137,1.321-13.062,1.321-13.062s0.146,2.202-1.614,7.485c-1.761,5.285-5.944,12.475-5.944,12.475s-2.789-3.449-5.431-7.705
		s-11.667-15.484-12.841-19.006S1042.478,238.264,1042.478,238.264"/>
	<path clip-path="url(#SVGID_2_)" d="M1076.674,336.926c0,0,0.22-0.881,1.541-2.532s2.201-0.99,1.98-3.522
		c-0.22-2.531-2.421-4.072-2.421-4.072s-1.808,3.086-1.541,5.063C1076.501,333.84,1076.674,336.926,1076.674,336.926"/>
	<path clip-path="url(#SVGID_2_)" d="M1079.205,344.631c0,0-1.101-3.742,0-5.944c1.102-2.201,3.743-2.532,3.743-2.532
		s0.44,0.771,0,3.304C1082.508,341.989,1079.205,344.631,1079.205,344.631"/>
	<path clip-path="url(#SVGID_2_)" d="M1086.36,351.786c0,0-2.862-5.283-2.422-7.155c0.44-1.87,1.431-1.98,1.762-3.302
		c0.33-1.321,0.66-3.632,0.66-3.632s1.321,1.431,1.98,3.522c0.661,2.091-0.989,4.732-1.1,6.273S1086.36,351.786,1086.36,351.786"/>
	<path clip-path="url(#SVGID_2_)" d="M1091.864,357.179c0,0,0.22-3.632,0-7.045c-0.221-3.412,0-7.044,0-7.044l2.752,2.862
		c0,0-0.11,4.182-0.882,5.833C1092.965,353.437,1091.864,357.179,1091.864,357.179"/>
	<path clip-path="url(#SVGID_2_)" d="M1095.387,358.831c0,0,0.109-4.403,1.32-6.274s2.862-5.834,2.862-5.834s0.55,1.981,3.302,2.312
		c2.752,0.33,5.834-1.763,5.834-1.763s-1.321,1.432,0,2.862c1.321,1.432,1.761,1.872,2.421,3.633
		c0.661,1.762,2.092,2.642,2.092,2.642s-2.312,0.551-4.183-0.99s-1.431-1.651-4.733-1.651c-3.302,0-4.843,0.551-5.613,1.321
		S1095.387,358.831,1095.387,358.831"/>
	<path clip-path="url(#SVGID_2_)" d="M1117.07,355.308c0,0-3.853-2.201-3.853-6.054c0-3.854,0.771-7.485,0.771-7.485
		s0.991,1.981,1.981,3.854C1116.96,347.493,1117.07,355.308,1117.07,355.308"/>
	<path clip-path="url(#SVGID_2_)" d="M1120.152,351.786c0,0,0.661-3.963,0-6.273c-0.66-2.312-1.541-3.634-1.321-5.119
		c0.221-1.485,0.79-3.468,0.79-3.468s0.972,3.412,2.183,4.844c1.211,1.431,2.972,3.633,1.541,5.724
		C1121.913,349.584,1120.152,351.786,1120.152,351.786"/>
	<path clip-path="url(#SVGID_2_)" d="M1128.408,344.631c0,0-2.862-1.211-3.412-3.522c-0.551-2.312-0.441-4.954-0.441-4.954
		s0.221-0.55,2.643,0.771c2.422,1.32,2.312,2.091,2.201,3.963C1129.289,342.76,1128.408,344.631,1128.408,344.631"/>
	<path clip-path="url(#SVGID_2_)" d="M1133.691,336.156c0,0-3.1,0.55-4.247-1.651c-1.147-2.202-0.596-4.403-1.036-6.054
		c-0.441-1.651,0-2.422,0-2.422s1.016,0.109,2.543,2.202c1.529,2.091,0.208,3.191,0.869,4.622
		C1132.48,334.285,1133.691,336.156,1133.691,336.156"/>
	<path clip-path="url(#SVGID_2_)" d="M1105.146,170.937c0,0-10.354-4.803-12.328-10.041c-1.976-5.237-0.846-14.12-1.541-19.36
		c-0.336-2.525-4.66-12.773-10.42-18.837c-2.275-2.396-10.788-8.009-10.788-8.009s16.07,0.367,21.465,5.283
		c4.838,4.411,9.652,13.792,9.686,18.874c0.043,6.494-0.439,12.827-0.477,17.377
		C1100.711,160.188,1105.146,170.937,1105.146,170.937"/>
	<path clip-path="url(#SVGID_2_)" d="M1107.641,166.229c0,0-5.844-9.696-1.743-15.434c5.706-7.982,8.227-24.189,12.996-28.885
		c4.681-4.608,20.384-6.047,20.384-6.047s-6.061,6.238-9.289,12.182c-3.229,5.944-6.446,19.203-11.843,26.271
		C1114.162,159.535,1107.641,166.229,1107.641,166.229"/>
	<path clip-path="url(#SVGID_2_)" d="M970.417,249.254c0,0-2.008-17.301-6.458-26.767c-6.108-12.994-4.035-23.636,5.064-32.398
		c9.099-8.762,18.526-8.85,25.537-13.099c7.01-4.248,16.115-15.235,16.115-15.235s-4.623,12.11-4.623,20.078
		c0,7.969,3.404,13.209,3.404,13.209s-15.557,8.146-26.417,18.272C972.147,223.47,970.417,249.254,970.417,249.254"/>
	<path clip-path="url(#SVGID_2_)" d="M979.223,243.694c0,0,3.009-19.813,12.915-25.599c14.481-8.458,23.652-17.256,23.652-17.256
		s1.583,17.678-6.701,21.428C985.607,232.896,979.223,243.694,979.223,243.694"/>
	<path clip-path="url(#SVGID_2_)" d="M989.056,142.098c0,0,18.209-15.74,28.336-17.281c11.771-1.792,31.396-3.523,38.924,5.527
		c5.141,6.18,5.348,11.584,9.644,19.422c3.694,6.741,11.594,13.796,11.594,13.796s-11.601,1.23-18.051-2.247
		c-6.451-3.477-12.433-11.281-20.474-15.805c-6.825-3.839-9.907-5.724-20.694-7.044
		C1009.513,137.384,989.056,142.098,989.056,142.098"/>
	<path clip-path="url(#SVGID_2_)" d="M1087.021,160.896c0,0-9.481-4.757-12.563-10.103c-3.081-5.345-5.198-13.484-6.838-16.29
		c-7.97-13.649-24.407-15.557-24.407-15.557s29.915-11.869,42.378,20.18C1087.769,144.73,1087.021,160.896,1087.021,160.896"/>
	<path clip-path="url(#SVGID_2_)" d="M1024.609,143.602c0,0-11.631,3.742-17.354,7.925c-5.725,4.183-5.138,12.246-12.476,17.318
		c-6.491,4.488-14.749,3.082-20.693,7.485c-5.944,4.403-7.705,10.347-7.705,10.347s3.348-11.888,4.182-18.492
		s3.449-14.639,12.108-19.354C991.433,144.061,1024.609,143.602,1024.609,143.602"/>
	<path clip-path="url(#SVGID_2_)" d="M1237.126,251.015c0,0,2.008-17.301,6.458-26.767c6.107-12.994,4.034-23.636-5.064-32.398
		c-9.099-8.762-18.526-8.85-25.537-13.099c-7.01-4.248-16.115-15.235-16.115-15.235s4.623,12.11,4.623,20.079
		c0,7.968-3.403,13.208-3.403,13.208s15.557,8.146,26.417,18.272C1235.396,225.231,1237.126,251.015,1237.126,251.015"/>
	<path clip-path="url(#SVGID_2_)" d="M1228.32,245.456c0,0-3.01-19.813-12.916-25.599c-14.48-8.458-23.651-17.256-23.651-17.256
		s-1.583,17.678,6.701,21.428C1221.936,234.658,1228.32,245.456,1228.32,245.456"/>
	<path clip-path="url(#SVGID_2_)" d="M1218.486,143.859c0,0-17.98-18.955-28.107-20.496c-11.771-1.791-31.625-0.308-39.152,8.742
		c-5.141,6.18-5.348,11.584-9.644,19.422c-3.694,6.741-11.595,13.796-11.595,13.796s11.602,1.23,18.053-2.247
		c6.449-3.477,12.432-11.281,20.473-15.805c6.825-3.839,9.907-5.724,20.694-7.044
		C1198.029,139.146,1218.486,143.859,1218.486,143.859"/>
	<path clip-path="url(#SVGID_2_)" d="M1182.934,145.363c0,0,11.631,3.742,17.354,7.925s5.137,12.246,12.476,17.318
		c6.49,4.488,14.748,3.082,20.692,7.485c5.944,4.403,7.705,10.347,7.705,10.347s-3.348-11.888-4.182-18.492
		s-3.449-14.639-12.108-19.354C1216.11,145.822,1182.934,145.363,1182.934,145.363"/>
	<path clip-path="url(#SVGID_2_)" d="M1118.146,161.314c0,0,14.41-3.508,18.517-9.421c5.504-7.925,7.615-17.452,11.212-21.635
		c4.584-5.331,12.535-8.525,12.535-8.525s-14.275-6.017-19.601-2.054c-5.326,3.962-9.716,21.08-12.328,26.857
		C1126.338,151.276,1118.146,161.314,1118.146,161.314"/>
	<path clip-path="url(#SVGID_2_)" d="M1106.43,141.046c0,0-1.798-8.525-3.449-11.827c-1.65-3.302-6.604-8.916-6.604-8.916
		s6.329,2.611,9.521,2.395c3.192-0.217,9.522-2.395,9.522-2.395s-3.523,4.293-5.284,8.035
		C1108.375,132.081,1106.43,141.046,1106.43,141.046"/>
</g>
</svg>
